<?xml version="1.0" encoding="UTF-8" standalone="no"?>
<!-- Created with Inkscape (http://www.inkscape.org/) -->

<svg
   xmlns:dc="http://purl.org/dc/elements/1.1/"
   xmlns:cc="http://creativecommons.org/ns#"
   xmlns:rdf="http://www.w3.org/1999/02/22-rdf-syntax-ns#"
   xmlns:svg="http://www.w3.org/2000/svg"
   xmlns="http://www.w3.org/2000/svg"
   xmlns:sodipodi="http://sodipodi.sourceforge.net/DTD/sodipodi-0.dtd"
   xmlns:inkscape="http://www.inkscape.org/namespaces/inkscape"
   width="45mm"
   height="90mm"
   viewBox="0 0 45 90"
   version="1.1"
   id="svg12330"
   inkscape:version="0.92.5 (0.92.5+68)"
   sodipodi:docname="02-Denari.svg">
  <defs
     id="defs12324" />
  <sodipodi:namedview
     id="base"
     pagecolor="#ffffff"
     bordercolor="#666666"
     borderopacity="1.0"
     inkscape:pageopacity="0.0"
     inkscape:pageshadow="2"
     inkscape:zoom="0.35"
     inkscape:cx="-421.42857"
     inkscape:cy="560"
     inkscape:document-units="mm"
     inkscape:current-layer="layer1"
     showgrid="false"
     inkscape:window-width="1920"
     inkscape:window-height="1015"
     inkscape:window-x="0"
     inkscape:window-y="36"
     inkscape:window-maximized="1" />
  <metadata
     id="metadata12327">
    <rdf:RDF>
      <cc:Work
         rdf:about="">
        <dc:format>image/svg+xml</dc:format>
        <dc:type
           rdf:resource="http://purl.org/dc/dcmitype/StillImage" />
        <dc:title></dc:title>
      </cc:Work>
    </rdf:RDF>
  </metadata>
  <g
     inkscape:label="Livello 1"
     inkscape:groupmode="layer"
     id="layer1"
     transform="translate(0,-207)">
    <g
       transform="matrix(0.28222223,0,0,0.28222223,-44.999995,-29.982764)"
       style="display:inline;opacity:0.95999995;enable-background:new"
       id="g13710">
      <g
         id="g3963-36-3-1"
         transform="matrix(0.97007836,0,0,0.99640171,-802.9341,-904.23112)"
         style="display:inline;fill:#f4f2ef;fill-opacity:1;enable-background:new">
        <g
           style="fill:#f4f2ef;fill-opacity:1"
           transform="matrix(0.70046334,0,0,1.0004147,298.31443,-0.79222925)"
           id="g3888-7-38-2">
          <rect
             inkscape:label="#bordo esterno"
             ry="10.629921"
             rx="10.629921"
             style="fill:#f4f2ef;fill-opacity:1;stroke:#000000;stroke-width:0.99673343;stroke-miterlimit:4;stroke-dasharray:none;stroke-opacity:1"
             id="bordo_esterno-5-60-8"
             width="223.22835"
             height="311.81104"
             x="996.13269"
             y="1754.3506" />
        </g>
      </g>
      <g
         id="g3963-3-3-6-5"
         transform="matrix(0.76704017,0,0,0.89449577,-584.8201,-709.56442)"
         style="display:inline;fill:none;enable-background:new">
        <g
           style="fill:none"
           transform="matrix(0.70046334,0,0,1.0004147,298.31443,-0.79222925)"
           id="g3888-6-5-8-8">
          <rect
             inkscape:label="#bordo interno"
             ry="10.629921"
             rx="10.629921"
             style="fill:none;fill-opacity:1;stroke:#000000;stroke-width:0.99673343;stroke-miterlimit:4;stroke-dasharray:none;stroke-opacity:1"
             id="bordo_interno-6-0-7"
             width="223.22835"
             height="311.81104"
             x="996.13269"
             y="1754.3506" />
        </g>
      </g>
      <g
         id="g14591"
         style="display:inline"
         transform="translate(162.99212,102.46695)">
        <path
           style="fill:#1780ce;fill-rule:evenodd;stroke:#000000;stroke-width:1px;stroke-linecap:round;stroke-linejoin:round;stroke-opacity:1"
           d="m 24.776509,850.4691 c 0,0 0.391031,8.15054 0.767724,12.21171 0.07814,0.84238 0.197321,1.68052 0.309359,2.51907 0.354812,2.65557 0.338428,5.40136 1.149048,7.95495 0.52027,1.63894 1.294662,3.23263 2.342291,4.59619 0.711811,0.92647 1.666761,1.64939 2.607457,2.34229 0.787222,0.57985 2.519068,1.50261 2.519068,1.50261 0,0 -0.972272,-1.90035 -0.972272,-2.2981 0,-0.39775 -0.25471,-5.74452 -0.353554,-8.61786 -0.03648,-1.06044 0.136065,-2.14492 -0.08839,-3.18198 -0.192728,-0.89047 -0.630833,-1.71575 -1.06066,-2.51907 -0.49153,-0.91864 -1.147345,-1.73944 -1.723573,-2.60746 -0.881281,-1.32755 -1.935226,-2.55417 -2.65165,-3.97747 -1.261904,-2.507 -2.844848,-7.92488 -2.844848,-7.92488 z"
           id="path4779"
           inkscape:connector-curvature="0"
           sodipodi:nodetypes="cssssscssssssc" />
        <path
           style="display:inline;opacity:1;fill:none;fill-opacity:1;stroke:#000000;stroke-width:0.99921256;stroke-linecap:round;stroke-linejoin:round;stroke-miterlimit:4;stroke-dasharray:none"
           d="M 36.965334,868.3496 C 26.475739,857.86 19.98779,843.36876 19.987789,827.36218 c -1e-6,-32.01316 25.951798,-57.96496 57.964962,-57.96496 32.013159,0 57.964959,25.9518 57.964959,57.96496"
           id="path4560"
           inkscape:connector-curvature="0"
           sodipodi:nodetypes="cssc" />
        <path
           sodipodi:nodetypes="csc"
           inkscape:connector-curvature="0"
           id="path4600"
           d="m 132.37442,965.5512 c 0,32.01316 -25.9518,57.965 -57.964963,57.965 -32.013159,0 -57.964959,-25.95184 -57.964959,-57.965"
           style="display:inline;opacity:1;fill:none;fill-opacity:1;stroke:#000000;stroke-width:0.99921256;stroke-linecap:round;stroke-linejoin:round;stroke-miterlimit:4;stroke-dasharray:none" />
        <path
           style="fill:#1780ce;fill-rule:evenodd;stroke:#000000;stroke-width:1px;stroke-linecap:round;stroke-linejoin:round;stroke-opacity:1"
           d="m 132.8125,939.2997 -2.1875,2.8125 -2.125,4.0625 -2,4.8125 -0.4375,2.8125 -0.25,4.3125 0.1875,5.1875 -0.75,12.5625 3.4375,-6.6875 2.375,-7.9375 0.625,-5.125 0.6875,-7.5 z"
           id="path4885"
           inkscape:connector-curvature="0" />
        <path
           style="display:inline;fill:none;fill-rule:evenodd;stroke:#000000;stroke-width:0.6448819;stroke-linecap:round;stroke-linejoin:round;stroke-miterlimit:4;stroke-dasharray:none;stroke-opacity:1"
           d="m 130.50888,947.09314 c -2.32414,11.45319 -3.21196,23.08592 -4.69638,34.64407"
           id="path4808"
           inkscape:connector-curvature="0"
           sodipodi:nodetypes="cc" />
        <path
           style="fill:#1780ce;fill-rule:evenodd;stroke:#000000;stroke-width:1px;stroke-linecap:round;stroke-linejoin:round;stroke-opacity:1"
           d="m 133.90835,961.58737 c 0,0 -1.88874,1.09196 -2.74004,1.76777 -0.99546,0.79026 -1.98844,1.62668 -2.74004,2.65165 -0.58437,0.79692 -0.94359,1.74036 -1.32583,2.65165 -0.80729,1.92463 -1.58382,3.88383 -2.03293,5.92202 -0.55451,2.51657 -0.63282,5.11798 -0.79549,7.68978 -0.15999,2.52943 0.19218,5.09391 -0.17678,7.6014 -0.47948,3.2586 -2.62545,9.52587 -2.62545,9.52587 0,0 3.91132,-1.8014 5.45388,-3.25029 0.98879,-0.92875 1.67782,-2.1523 2.29809,-3.35876 1.21884,-2.37072 2.08391,-4.92933 2.74004,-7.51301 0.88715,-3.49334 1.27623,-7.10453 1.59099,-10.69499 0.37837,-4.31608 0.35356,-12.99309 0.35356,-12.99309 z"
           id="path4883"
           inkscape:connector-curvature="0"
           sodipodi:nodetypes="csssssscssssc" />
        <path
           id="path12639"
           style="display:inline;fill:#1780ce;fill-rule:evenodd;stroke:#000000;stroke-width:1px;stroke-linecap:round;stroke-linejoin:round;stroke-opacity:1"
           d="m 114.8053,843.91097 c -1.4336,3.76398 -5.15156,10.35442 -5.82026,11.10725 -0.6687,0.75284 -2.57896,3.57304 -4.58425,5.55904 -2.00529,1.986 -4.06954,3.73152 -7.162122,6.23896 -3.092586,2.50744 -9.873907,7.44331 -11.490637,8.66206 -1.616729,1.21875 -6.298558,4.06971 -9.899343,5.92202 -2.095716,1.07807 -6.39377,3.01797 -6.39377,3.01797 l 9.98886,24.97502 c 0,0 16.727997,-8.92215 19.914807,-11.81793 3.186805,-2.89578 6.496175,-5.731 9.193785,-8.62544 2.69761,-2.89444 4.93206,-5.35309 7.70354,-8.7264 2.77147,-3.37331 5.92955,-7.51795 8.47913,-11.56631 2.54958,-4.04836 6.06477,-11.1902 6.78682,-12.60553 0.72205,-1.41533 2.1713,-5.99494 2.82843,-9.104 0.93841,-4.43988 1.56703,-13.52341 1.56703,-13.52341 v -21.30159 l -18.80276,-16.7054 c 0,0 1.32543,4.74142 1.76777,7.15945 0.57672,3.15264 0.92318,6.34897 1.14905,9.54595 0.19522,2.76324 0.25197,5.53936 0.17808,8.3085 -0.0843,3.16019 -0.43762,6.35855 -1.06222,9.45755 -0.97389,4.83204 -2.58748,9.41584 -4.34194,14.02224 z"
           inkscape:connector-curvature="0"
           sodipodi:nodetypes="szzzzscczzzzzscccsssss" />
        <path
           sodipodi:nodetypes="szzzzscczzzzzscccsssss"
           inkscape:connector-curvature="0"
           d="m 37.556908,949.00241 c 1.4336,-3.76398 5.15156,-10.35442 5.82026,-11.10725 0.6687,-0.75284 2.57896,-3.57304 4.58425,-5.55904 2.00529,-1.986 4.06954,-3.73152 7.162122,-6.23896 3.092586,-2.50744 9.873907,-7.44331 11.490637,-8.66206 1.616729,-1.21875 6.298558,-4.06971 9.899343,-5.92202 2.095716,-1.07807 6.39377,-3.01797 6.39377,-3.01797 l -9.98886,-24.97502 c 0,0 -16.727997,8.92215 -19.914807,11.81793 -3.186805,2.89578 -6.496175,5.731 -9.193785,8.62544 -2.69761,2.89444 -4.93206,5.35309 -7.70354,8.7264 -2.77147,3.37331 -5.92955,7.51795 -8.47913,11.56631 -2.54958,4.04836 -6.06477,11.1902 -6.78682,12.60553 -0.72205,1.41533 -2.1713,5.99494 -2.82843,9.104 -0.93841,4.43988 -1.56703,13.52341 -1.56703,13.52341 v 10.67191 l 18.80276,27.33508 c 0,0 -1.32543,-4.74142 -1.76777,-7.15945 -0.57672,-3.15264 -0.92318,-6.34897 -1.14905,-9.54595 -0.19522,-2.76324 -0.25197,-5.53936 -0.17808,-8.3085 0.0843,-3.16019 0.43762,-6.35855 1.06222,-9.45755 0.97389,-4.83204 2.58748,-9.41584 4.34194,-14.02224 z"
           style="display:inline;fill:#1780ce;fill-rule:evenodd;stroke:#000000;stroke-width:1px;stroke-linecap:butt;stroke-linejoin:miter;stroke-opacity:1"
           id="path4602" />
        <path
           style="fill:#e9c13a;fill-rule:evenodd;stroke:#000000;stroke-width:1px;stroke-linecap:round;stroke-linejoin:round;stroke-opacity:1"
           d="m 58.756827,893.7824 c 0,0 -0.375239,3.30193 -0.420517,4.96086 -0.04021,1.47325 0.08839,4.02167 0.132582,4.41941 0.04419,0.39775 0.490175,3.30001 0.928078,4.90556 0.102996,0.37763 0.397747,1.10485 0.397747,1.10485 0,0 1.107384,-1.95029 1.590991,-2.96101 0.310582,-0.6491 0.615637,-1.30493 0.839689,-1.98874 0.495081,-1.51099 0.858514,-3.06955 1.104854,-4.64038 0.2953,-1.88304 1.455119,-4.08658 0.441942,-5.70105 -0.731437,-1.16552 -3.844893,-1.5026 -3.844893,-1.5026 l -1.240236,1.39126"
           id="path4791"
           inkscape:connector-curvature="0"
           sodipodi:nodetypes="cssscsssscc" />
        <path
           style="fill:#dd1d1d;fill-rule:evenodd;stroke:#000000;stroke-width:1px;stroke-linecap:butt;stroke-linejoin:round;stroke-opacity:1"
           d="m 51.310956,892.51874 11.184625,1.89818 -1.753129,8.68218 8.825783,-0.748 -1.753129,8.68219 8.82708,-0.74655 0.60445,11.32695 c 0,0 6.485607,-8.62944 10.488053,-12.19728 4.002512,-3.56776 13.315951,-9.02197 13.315951,-9.02197 l -11.183358,-1.89675 1.751826,-8.68365 -8.825778,0.74801 1.753124,-8.6822 -8.825778,0.74801 -0.605718,-11.32837 c 0,0 -6.484031,8.62826 -10.486458,12.19613 -4.002427,3.56788 -13.317544,9.02312 -13.317544,9.02312 z"
           id="path4637"
           inkscape:connector-curvature="0"
           sodipodi:nodetypes="ccccccczccccccczc" />
        <path
           sodipodi:nodetypes="ccccccczccccccczc"
           inkscape:connector-curvature="0"
           id="path4642"
           d="m 61.610496,890.75971 6.63819,2.71461 0.221464,4.98063 4.922573,0.79001 0.221464,4.98063 4.923517,0.79107 1.93617,6.90421 c 0,0 2.481834,-4.28382 4.260459,-5.86932 1.778694,-1.58542 6.317681,-3.5602 6.317681,-3.5602 l -6.637275,-2.71357 -0.222412,-4.9817 -4.92257,-0.79 -0.221467,-4.98064 -4.922569,-0.79 -1.937085,-6.90524 c 0,0 -2.481123,4.28331 -4.259733,5.86883 -1.77861,1.58552 -6.318407,3.56068 -6.318407,3.56068 z"
           style="fill:none;fill-rule:evenodd;stroke:#000000;stroke-width:1px;stroke-linecap:butt;stroke-linejoin:round;stroke-opacity:1" />
        <ellipse
           style="opacity:1;fill:none;fill-opacity:1;stroke:#000000;stroke-width:0.99921262;stroke-linecap:round;stroke-linejoin:round;stroke-miterlimit:4;stroke-dasharray:none"
           id="path4645"
           cx="-539.65002"
           cy="719.87195"
           rx="3.5433071"
           ry="12.401575"
           transform="rotate(-41.7143)" />
        <ellipse
           transform="matrix(0.66534884,0.7465326,-0.74643928,0.66545353,0,0)"
           ry="1.1068364"
           rx="8.8548346"
           cy="539.5838"
           cx="719.84875"
           id="path4695"
           style="opacity:1;fill:#000000;fill-opacity:1;stroke:#000000;stroke-width:0.6448819;stroke-linecap:round;stroke-linejoin:round;stroke-miterlimit:4;stroke-dasharray:none" />
        <g
           style="display:inline"
           id="g4708">
          <path
             sodipodi:nodetypes="czzczzzccc"
             inkscape:connector-curvature="0"
             id="path4676"
             d="m 112.59356,884.52142 c 0.23481,-0.26599 0.0522,-9.58108 0.27836,-13.62049 0.22615,-4.03941 0.54135,-7.97316 0.97227,-10.6066 0.43092,-2.63344 1.23744,-5.21492 1.23744,-5.21492 0,0 0.63585,2.29724 1.06066,3.71231 0.42481,1.41507 1.14649,3.13116 1.5026,4.77297 0.35611,1.64181 0.33766,2.91213 0.61872,5.03814 0.28106,2.12601 1.09243,7.7141 1.09243,7.7141 l -3.10013,3.90659 -3.86652,4.5282"
             style="display:inline;fill:#e9c13a;fill-rule:evenodd;stroke:#000000;stroke-width:1px;stroke-linecap:round;stroke-linejoin:round;stroke-opacity:1" />
          <path
             sodipodi:nodetypes="czzcczzc"
             inkscape:connector-curvature="0"
             id="path4678"
             d="m 121.88753,842.08633 c 0,0 0.75148,8.29074 0.88388,11.84403 0.1324,3.55329 0.097,6.36987 0,9.45756 -0.097,3.08769 -0.56991,9.05983 -0.56991,9.05983 l 5.01494,-8.08164 c 0,0 0.49966,-5.41165 0.32795,-8.04926 -0.17171,-2.63761 -0.36379,-5.26573 -1.32583,-7.68979 -0.96204,-2.42406 -4.33103,-6.54073 -4.33103,-6.54073 z"
             style="display:inline;fill:#e9c13a;fill-rule:evenodd;stroke:#000000;stroke-width:1px;stroke-linecap:round;stroke-linejoin:round;stroke-opacity:1" />
          <path
             sodipodi:nodetypes="cc"
             inkscape:connector-curvature="0"
             id="path4680"
             d="m 115.62268,866.1949 c 0.18796,4.53406 0.53256,9.15932 0.63326,14.02862"
             style="display:inline;fill:none;fill-rule:evenodd;stroke:#000000;stroke-width:0.6448819;stroke-linecap:round;stroke-linejoin:round;stroke-miterlimit:4;stroke-dasharray:none;stroke-opacity:1" />
          <path
             sodipodi:nodetypes="cc"
             inkscape:connector-curvature="0"
             id="path4682"
             d="m 124.94007,852.27687 c 0.65954,5.40757 0.36795,10.71826 -0.2311,16.13006"
             style="display:inline;fill:none;fill-rule:evenodd;stroke:#000000;stroke-width:0.6448819;stroke-linecap:round;stroke-linejoin:round;stroke-miterlimit:4;stroke-dasharray:none;stroke-opacity:1" />
          <path
             sodipodi:nodetypes="czzzzczzzczzczzzzccc"
             inkscape:connector-curvature="0"
             id="path4694"
             d="m 130.32862,829.57937 c 0,0 -0.20152,-5.75114 -0.48614,-7.99914 -0.28462,-2.248 -0.55524,-3.72089 -1.06066,-5.48008 -0.50542,-1.75919 -1.16866,-3.16458 -1.94454,-5.03813 -0.77588,-1.87355 -1.18889,-3.51806 -2.74004,-6.18719 -1.55115,-2.66913 -6.98268,-9.45755 -6.98268,-9.45755 0,0 2.90309,0.0344 4.24264,0.35355 1.33955,0.31914 2.59345,0.81232 3.71231,1.5026 1.11886,0.69028 1.95858,1.54405 2.91682,2.56327 0.95824,1.01922 2.76309,3.56523 2.76309,3.56523 0,0 -2.11829,-5.29529 -2.6747,-7.36593 -0.55641,-2.07064 -0.319,-3.52431 -0.0884,-4.94975 0.2306,-1.42544 1.6818,-4.5962 1.6818,-4.5962 0,0 0.41631,2.39476 0.88388,4.24265 0.46757,1.84789 1.63869,5.51807 2.03293,6.8059 0.39423,1.28783 2.09152,5.68289 2.65166,8.66206 0.56014,2.97917 0.26417,3.53518 0.47207,9.104 0.2079,5.56882 0,24.30679 0,24.30679 l -1.05743,5.70274 -4.32262,-15.73482"
             style="display:inline;fill:#e9c13a;fill-rule:evenodd;stroke:#000000;stroke-width:1px;stroke-linecap:round;stroke-linejoin:round;stroke-opacity:1" />
          <path
             sodipodi:nodetypes="czzczzzzzcc"
             inkscape:connector-curvature="0"
             id="path4686"
             d="m 129.85491,859.34925 c 0,0 -0.59505,-11.29792 -1.35491,-15.61205 -0.75986,-4.31413 -1.72444,-6.67363 -2.75,-10.25 -1.02556,-3.57637 -3.42053,-11.19986 -3.42053,-11.19986 0,0 2.26621,0.82506 3.27037,1.4584 1.00416,0.63334 1.88408,1.32124 2.69585,2.2981 0.81177,0.97686 1.24636,1.73769 2.03293,3.53553 0.78657,1.79784 1.88309,4.5353 2.60888,7.15783 0.72579,2.62253 1.74575,5.65485 1.71374,8.57699 -0.032,2.92214 -2.2793,8.60648 -2.2793,8.60648 l -2.50465,5.40435"
             style="display:inline;fill:#e9c13a;fill-rule:evenodd;stroke:#000000;stroke-width:1px;stroke-linecap:round;stroke-linejoin:round;stroke-opacity:1" />
          <path
             sodipodi:nodetypes="cc"
             inkscape:connector-curvature="0"
             id="path4696"
             d="m 131.93736,833.61697 c 0.29683,-6.53982 0.65761,-12.46945 -1.18736,-18.25477"
             style="display:inline;fill:none;fill-rule:evenodd;stroke:#000000;stroke-width:0.6448819;stroke-linecap:round;stroke-linejoin:round;stroke-miterlimit:4;stroke-dasharray:none;stroke-opacity:1" />
          <path
             sodipodi:nodetypes="czczzccccc"
             inkscape:connector-curvature="0"
             id="path4667"
             d="m 90.245193,889.93048 c 0,0 2.30159,-5.88957 3.567307,-8.63078 1.265717,-2.74121 4,-7.8125 4,-7.8125 0,0 1.308798,5.23591 1.5625,8.25 0.253702,3.01409 0.04834,6.94687 -0.1875,9.75 -0.235844,2.80313 -1.055432,7.04784 -1.055432,7.04784 l -1.410314,1.1252 -6.854472,-1.16255 1.751826,-8.68365 z"
             style="fill:#e9c13a;fill-rule:evenodd;stroke:#000000;stroke-width:1px;stroke-linecap:round;stroke-linejoin:round;stroke-opacity:1" />
          <path
             sodipodi:nodetypes="czzczzzccc"
             inkscape:connector-curvature="0"
             id="path4670"
             d="m 101.41667,895.72116 c 0,0 0.25462,-5.19993 0.64583,-8.42146 0.39121,-3.22153 0.92138,-7.45819 1.8125,-10.875 0.89112,-3.41681 3.4375,-9.5625 3.4375,-9.5625 0,0 1.30784,4.29769 1.75,6.3125 0.44216,2.01481 0.75391,4.1109 0.9375,5.75 0.18359,1.6391 0.27963,2.6059 0.25,4.0625 -0.0296,1.4566 -0.47631,4.64688 -0.47631,4.64688 l -3.71965,3.83634 z"
             style="fill:#e9c13a;fill-rule:evenodd;stroke:#000000;stroke-width:1px;stroke-linecap:round;stroke-linejoin:round;stroke-opacity:1" />
          <path
             sodipodi:nodetypes="cc"
             inkscape:connector-curvature="0"
             id="path4672"
             d="m 96.5625,883.4247 c -0.288566,5.42326 -1.493007,10.53744 -3.267982,15.65426"
             style="fill:none;fill-rule:evenodd;stroke:#000000;stroke-width:0.6448819;stroke-linecap:round;stroke-linejoin:round;stroke-miterlimit:4;stroke-dasharray:none;stroke-opacity:1" />
          <path
             sodipodi:nodetypes="cc"
             inkscape:connector-curvature="0"
             id="path4674"
             d="m 107,875.0497 c 0.20455,5.84325 -0.034,11.42389 -0.94596,16.42072"
             style="fill:none;fill-rule:evenodd;stroke:#000000;stroke-width:0.6448819;stroke-linecap:round;stroke-linejoin:round;stroke-miterlimit:4;stroke-dasharray:none;stroke-opacity:1" />
        </g>
        <path
           style="fill:#1780ce;fill-rule:evenodd;stroke:#000000;stroke-width:1px;stroke-linecap:round;stroke-linejoin:round;stroke-opacity:1"
           d="m 124.84264,793.27776 c 0,0 -0.29329,-4.11175 -0.21764,-6.22806 0.0756,-2.11631 0.75811,-4.33385 0.6875,-6.4375 -0.0706,-2.10365 -0.38607,-4.13081 -1.0625,-6.0625 -0.67643,-1.93169 -1.80297,-4.05344 -2.9375,-5.375 -1.13453,-1.32156 -3.4375,-2.625 -3.4375,-2.625 0,0 1.19703,3.06607 1.4375,4.4375 0.24047,1.37143 0.14802,2.49836 0.125,3.6875 -0.023,1.18914 -0.26884,2.38125 -0.25,3.4375 0.0188,1.05625 0.0847,1.80425 0.3125,2.875 0.22781,1.07075 0.63029,1.959 1.125,3.5 0.49471,1.541 1.84245,5.74624 1.84245,5.74624 l 2.0343,2.581"
           id="path4739-67"
           inkscape:connector-curvature="0"
           sodipodi:nodetypes="czzzzczzzzzcc" />
        <path
           style="fill:#1780ce;fill-rule:evenodd;stroke:#000000;stroke-width:1px;stroke-linecap:round;stroke-linejoin:round;stroke-opacity:1"
           d="m 123.4846,791.52394 c 0,0 -3.37875,-1.20823 -5.1096,-1.47424 -1.73085,-0.26601 -3.74436,-0.35362 -5.1875,-0.125 -1.44314,0.22862 -2.34143,0.71208 -3.375,1.1875 -1.03357,0.47542 -2.07872,1.05068 -2.8125,1.625 -0.73378,0.57432 -1.625,1.6875 -1.625,1.6875 0,0 2.0625,0.4375 2.3125,0.4375 0.25,0 1.74676,0.11582 2.8125,0.0625 1.06574,-0.0533 2.57306,-0.24746 3.5625,-0.4375 0.98944,-0.19004 1.19767,-0.44067 2.375,-0.625 1.17733,-0.18433 3.34067,-0.0566 4.6875,-0.25 1.34683,-0.19342 3.37675,-0.79776 3.37675,-0.79776 l -1.01715,-1.2905"
           id="path4741-56"
           inkscape:connector-curvature="0"
           sodipodi:nodetypes="czzzzczzzzzcc" />
        <path
           style="fill:#1780ce;fill-rule:evenodd;stroke:#000000;stroke-width:1px;stroke-linecap:round;stroke-linejoin:round;stroke-opacity:1"
           d="m 102.625,763.2997 c 0.5625,0.3125 2.08421,0.91301 2.9375,1.9375 0.85329,1.02449 1.14367,2.82298 1.75,4.125 0.60633,1.30202 1.15863,2.41385 1.875,3.6875 0.71637,1.27365 1.65603,2.47459 2.4375,3.9375 0.78147,1.46291 2.20311,4.84286 2.20311,4.84286 l 2.36189,1.9668 c 0,0 -0.54519,-2.45289 -0.69,-3.87216 -0.14481,-1.41927 0.16165,-3.05294 -0.125,-4.625 -0.28665,-1.57206 -1.01338,-3.34477 -1.625,-4.6875 -0.61162,-1.34273 -1.5,-3.3125 -1.9375,-3.375 -0.4375,-0.0625 -2.36422,-2.67211 -3.75,-3.375 -1.38578,-0.70289 -3.25994,-0.89308 -4.1875,-0.875 -0.92756,0.0181 -1.25,0.3125 -1.25,0.3125 z"
           id="path4743-98"
           inkscape:connector-curvature="0"
           sodipodi:nodetypes="czzzzcczzzzzzc" />
        <path
           style="fill:#1780ce;fill-rule:evenodd;stroke:#000000;stroke-width:1px;stroke-linecap:round;stroke-linejoin:round;stroke-opacity:1"
           d="m 96.1875,762.1122 c 0,0 1.747905,2.47428 2.3125,3.6875 0.564595,1.21322 0.671644,2.41438 1.125,3.5 0.45336,1.08562 0.78499,1.8955 1.5625,3 0.77751,1.1045 3.20668,3.46593 3.20668,3.46593 l 3.29197,1.82822 c 0,0 -1.52335,-3.39948 -2.12365,-4.85665 -0.6003,-1.45717 -0.6768,-2.49271 -1.5,-3.875 -0.8232,-1.38229 -2.22335,-3.05724 -3.5625,-4.1875 -1.339152,-1.13026 -4.3125,-2.5625 -4.3125,-2.5625 z"
           id="path4745"
           inkscape:connector-curvature="0"
           sodipodi:nodetypes="czzzcczzzc" />
        <path
           style="fill:#1780ce;fill-rule:evenodd;stroke:#000000;stroke-width:1px;stroke-linecap:round;stroke-linejoin:round;stroke-opacity:1"
           d="m 106.04017,776.67974 c 0,0 -3.93412,-0.0872 -5.47767,0.11996 -1.543555,0.2072 -2.52258,0.47856 -3.75,0.9375 -1.22742,0.45894 -2.514036,0.95264 -3.5625,1.8125 -1.048464,0.85986 -1.994095,2.30806 -2.5625,3.25 -0.568405,0.94194 -1,2.25 -1,2.25 0,0 1.031657,-0.25841 1.8125,-0.4375 0.780843,-0.17909 1.859494,-0.31765 2.875,-0.625 1.015506,-0.30735 2.233439,-0.6433 3.1875,-1.25 0.954061,-0.6067 1.638229,-1.67058 2.4375,-2.3125 0.79927,-0.64192 1.41536,-1.17284 2.3125,-1.5625 0.89714,-0.38966 2.10455,-0.47535 3,-0.6875 0.89545,-0.21215 2.37365,-0.58085 2.37365,-0.58085 z"
           id="path4747"
           inkscape:connector-curvature="0"
           sodipodi:nodetypes="czzzzczzzzzzcc" />
        <path
           style="fill:#1780ce;fill-rule:evenodd;stroke:#000000;stroke-width:1px;stroke-linecap:round;stroke-linejoin:round;stroke-opacity:1"
           d="m 113.82811,781.83006 c 0,0 -2.14793,-0.0288 -3.45311,-0.0929 -1.30518,-0.0641 -3.083,-0.39876 -4.375,-0.3125 -1.292,0.0863 -2.35478,0.23314 -3.3125,0.6875 -0.95772,0.45436 -1.28572,0.89652 -2.3125,1.875 -1.026776,0.97848 -3.6875,4.125 -3.6875,4.125 0,0 1.729288,0.42563 2.625,0.4375 0.89571,0.0119 1.60254,-0.0502 2.6875,-0.375 1.08496,-0.3248 2.62656,-1.2149 3.6875,-1.75 1.06094,-0.5351 1.73757,-1.01809 2.6875,-1.4375 0.94993,-0.41941 1.89477,-0.69799 3,-1.0625 1.10523,-0.36451 3.63405,-1.11124 3.63405,-1.11124 l -1.18094,-0.9834"
           id="path4749-72"
           inkscape:connector-curvature="0"
           sodipodi:nodetypes="czzzzczzzzzcc" />
        <path
           style="fill:#e9c13a;fill-rule:evenodd;stroke:#000000;stroke-width:1px;stroke-linecap:round;stroke-linejoin:round;stroke-opacity:1"
           d="m 74.4375,758.9247 c 0,0 2.071386,1.15928 3.25,2.125 1.178614,0.96572 2.318255,2.60678 3.6875,3.75 1.369245,1.14322 2.688602,1.98194 4.5,3.0625 1.811398,1.08056 6.403087,3.31873 6.403087,3.31873 l 6.026522,1.88981 c 0,0 -1.143875,-2.34033 -2.242109,-3.83354 -1.098234,-1.49321 -2.928989,-3.6209 -4.5,-4.9375 -1.571011,-1.3166 -3.147674,-2.2562 -4.75,-3 -1.602326,-0.7438 -3.310133,-1.09898 -4.75,-1.5 -1.439867,-0.40102 -2.593292,-0.79548 -3.875,-0.9375 -1.281708,-0.14202 -3.75,0.0625 -3.75,0.0625 z"
           id="path4751"
           inkscape:connector-curvature="0"
           sodipodi:nodetypes="czzzcczzzzzc" />
        <path
           style="fill:#e9c13a;fill-rule:evenodd;stroke:#000000;stroke-width:1px;stroke-linecap:round;stroke-linejoin:round;stroke-opacity:1"
           d="m 93.531578,771.574 c 0,0 -3.808106,1.11898 -5.469078,1.7257 -1.660972,0.60672 -3.124806,0.99822 -4.5,1.875 -1.375194,0.87678 -2.581987,1.97684 -3.625,3.3125 -1.043013,1.33566 -2.5,4.625 -2.5,4.625 0,0 1.869985,-0.3938 3.375,-0.9375 1.505015,-0.5437 4.092002,-1.70355 5.5625,-2.5 1.470498,-0.79645 2.094866,-1.39282 3.3125,-2.125 1.217634,-0.73218 2.564409,-1.50065 4,-2.25 1.435591,-0.74935 4.617109,-2.22896 4.617109,-2.22896 z"
           id="path4753-82"
           inkscape:connector-curvature="0"
           sodipodi:nodetypes="czzzczzzzcc" />
        <path
           style="fill:#e9c13a;fill-rule:evenodd;stroke:#000000;stroke-width:1px;stroke-linecap:round;stroke-linejoin:round;stroke-opacity:1"
           d="m 77.952751,769.39722 c 0,0 -2.654531,-3.2834 -4.327751,-4.53502 -1.238552,-0.92647 -2.737981,-1.4405 -4.125,-2.125 -1.487553,-0.73411 -2.944149,-1.54962 -4.5,-2.125 -1.701771,-0.62934 -3.453018,-1.18659 -5.25,-1.4375 -2.022156,-0.28235 -6.125,-0.0625 -6.125,-0.0625 0,0 1.0739,2.25061 1.875,3.1875 0.98119,1.14751 2.198227,2.11021 3.5,2.875 1.717862,1.00924 3.658918,1.59929 5.5625,2.1875 1.429264,0.44165 2.924565,0.63382 4.375,1 1.47444,0.37224 4.396978,1.21631 4.396978,1.21631 z"
           id="path4755"
           inkscape:connector-curvature="0"
           sodipodi:nodetypes="csssscsssscc" />
        <path
           style="fill:#e9c13a;fill-rule:evenodd;stroke:#000000;stroke-width:1px;stroke-linecap:round;stroke-linejoin:round;stroke-opacity:1"
           d="m 66.50794,770.52685 c -1.402069,0.50506 -3.380773,1.69286 -4.44544,2.58535 -1.064667,0.89249 -1.572596,1.37964 -2.0625,2.4375 -0.489904,1.05786 -0.249642,1.88025 -0.625,3.75 -0.375358,1.86975 -1.75,7.4375 -1.75,7.4375 0,0 0.798319,-0.20566 1.75,-0.9375 0.951681,-0.73184 1.691163,-1.97177 3.5625,-3.8125 1.871337,-1.84073 5.420534,-5.37902 7.8125,-7.0625 2.391966,-1.68348 4.544278,-2.39399 6.1875,-3.3125 1.643222,-0.91851 3.694514,-2.15416 3.694514,-2.15416 l -4.988399,0.0298 c 0,0 -3.865435,0.23095 -5.388097,0.41594 -1.522662,0.18499 -2.345509,0.11801 -3.747578,0.62307 z"
           id="path4759"
           inkscape:connector-curvature="0"
           sodipodi:nodetypes="zzzzczzzzcczz" />
        <path
           style="fill:#e9c13a;fill-rule:evenodd;stroke:#000000;stroke-width:1px;stroke-linecap:round;stroke-linejoin:round;stroke-opacity:1"
           d="m 89.913119,770.63255 c 0,0 -3.335922,1.18704 -5.100619,2.04215 -1.764697,0.85511 -4.011098,2.12686 -5.4375,3.125 -1.426402,0.99814 -2.107748,1.69938 -3.193896,2.6875 -1.086148,0.98812 -1.524961,2.06292 -3.306104,3.25 -1.781143,1.18708 -7.5625,3.1875 -7.5625,3.1875 0,0 -0.134993,-1.53557 0.125,-2.8125 0.259993,-1.27693 0.902303,-3.31258 1.75,-4.6875 0.847697,-1.37492 2.056887,-2.49055 3.1875,-3.4375 1.130613,-0.94695 1.804011,-1.43424 3.5,-2.25 1.695989,-0.81576 4.014864,-2.00538 6.757014,-2.27916 2.74215,-0.27378 9.328753,1.18452 9.328753,1.18452"
           id="path4757"
           inkscape:connector-curvature="0"
           sodipodi:nodetypes="czzzzczzzzzc" />
        <path
           style="fill:#e9c13a;fill-rule:evenodd;stroke:#000000;stroke-width:1px;stroke-linecap:round;stroke-linejoin:round;stroke-opacity:1"
           d="m 63.590964,771.19021 c 0,0 -3.530858,-0.4657 -5.122214,-1.20301 -1.763685,-0.81715 -2.966859,-2.56447 -4.6875,-3.46875 -1.306366,-0.68656 -2.735582,-1.17314 -4.1875,-1.4375 -2.429878,-0.44242 -7.40625,-0.21875 -7.40625,-0.21875 0,0 3.9375,4.09375 4.0625,4.15625 0.125,0.0625 1.369349,1.7825 2.3125,2.34375 0.773419,0.46025 1.704633,0.61044 2.59375,0.75 2.779986,0.43635 8.438292,0.25238 8.438292,0.25238 z"
           id="path4761"
           inkscape:connector-curvature="0"
           sodipodi:nodetypes="cssscssscc" />
        <path
           style="fill:#e9c13a;fill-rule:evenodd;stroke:#000000;stroke-width:1px;stroke-linecap:round;stroke-linejoin:round;stroke-opacity:1"
           d="m 59.594542,772.36458 c 0,0 -3.577756,2.11462 -5.250792,3.34137 -1.097081,0.80443 -2.143631,1.68287 -3.125,2.625 -0.925522,0.88852 -1.944492,1.73717 -2.59375,2.84375 -0.40007,0.68187 -0.817915,1.51367 -1.105709,2.25 -0.295315,0.75557 -0.441559,1.43326 -0.644291,2.21875 -0.765291,2.96514 -0.75,9.15625 -0.75,9.15625 0,0 3.557468,-3.00036 5.1875,-4.65625 1.113646,-1.13131 2.232019,-2.28125 3.125,-3.59375 0.508432,-0.74729 0.972669,-1.546 1.25,-2.40625 0.332677,-1.03194 0.174983,-2.17507 0.46875,-3.21875 0.488068,-1.73398 2.125,-4.96875 2.125,-4.96875 1.243828,-2.0489 3.467584,-3.24036 5.309714,-4.76574 l -3.996422,1.17437"
           id="path4763"
           inkscape:connector-curvature="0"
           sodipodi:nodetypes="cssssscssssccc" />
        <path
           style="fill:#e9c13a;fill-rule:evenodd;stroke:#000000;stroke-width:1px;stroke-linecap:round;stroke-linejoin:round;stroke-opacity:1"
           d="m 48.39262,775.44151 c -0.574524,-0.17678 -3.55482,-1.81272 -5.480077,-2.2539 -2.14342,-0.49117 -4.387081,-0.46813 -6.584932,-0.39775 -1.780611,0.057 -3.572884,0.23925 -5.303301,0.66291 -1.724966,0.42232 -3.452919,0.97349 -4.993942,1.85616 -1.435453,0.82221 -3.844893,3.13779 -3.844893,3.13779 0,0 1.021446,0.96918 2.077126,1.59099 1.27588,0.75151 2.808346,1.04824 4.33103,1.14904 1.855831,0.12285 3.723388,-0.11927 5.568465,-0.35355 2.098019,-0.2664 4.176514,-0.69305 6.231379,-1.19324 1.761718,-0.42883 3.467851,-1.0617 5.214912,-1.5468 1.042482,-0.28946 3.142165,-0.81352 3.142165,-0.81352 l 2.493302,-1.37571 c 0,0 -2.276709,-0.28564 -2.851234,-0.46242 z"
           id="path4765"
           inkscape:connector-curvature="0"
           sodipodi:nodetypes="ssssscsssssccs" />
        <path
           style="fill:#e9c13a;fill-rule:evenodd;stroke:#000000;stroke-width:1px;stroke-linecap:round;stroke-linejoin:round;stroke-opacity:1"
           d="m 39.324376,784.14355 c -1.093709,1.32751 -1.783626,2.95913 -2.422241,4.55621 -0.732527,1.83193 -1.263722,3.75542 -1.59099,5.70105 -0.359881,2.13952 -0.379597,4.32705 -0.397748,6.49655 -0.02221,2.65417 0.353554,7.95495 0.353554,7.95495 0,0 2.149677,-4.52423 3.18198,-6.80591 0.954444,-2.10959 1.986996,-4.19008 2.784233,-6.36396 0.566474,-1.54464 1.414214,-4.552 1.414214,-4.72877 0,-0.17678 0.795498,-4.5962 0.839689,-4.86136 0.04419,-0.26517 0.96708,-3.37199 1.856155,-4.86136 0.891446,-1.49334 3.40733,-3.95131 3.40733,-3.95131 l -5.032316,3.30231 c 0,0 -3.195022,2.10649 -4.39386,3.5616 z"
           id="path4767"
           inkscape:connector-curvature="0"
           sodipodi:nodetypes="sssscsssssccs" />
        <path
           style="fill:#e9c13a;fill-rule:evenodd;stroke:#000000;stroke-width:1px;stroke-linecap:round;stroke-linejoin:round;stroke-opacity:1"
           d="m 36.241779,787.11124 c 0,0 -2.061616,0.2847 -3.096149,0.39528 -1.705464,0.1823 -4.905553,0.44194 -5.126524,0.44194 -0.220971,0 -2.409753,0.35753 -3.535534,0.7955 -1.076219,0.41869 -2.071602,1.04391 -3.005203,1.72357 -0.885252,0.64446 -1.792052,1.32024 -2.43068,2.20971 -0.450145,0.62695 -0.928078,2.12132 -0.928078,2.12132 0,0 1.296659,-0.66643 1.988738,-0.88388 0.815859,-0.25634 1.665642,-0.43135 2.519068,-0.48614 0.471355,-0.0303 0.94198,0.0792 1.414214,0.0884 0.633499,0.0124 1.281411,0.0914 1.900349,-0.0442 1.16016,-0.2542 2.207111,-0.88499 3.270369,-1.41421 1.77423,-0.88309 5.172867,-2.93106 5.172867,-2.93106 z"
           id="path4769"
           inkscape:connector-curvature="0"
           sodipodi:nodetypes="cssssscssssscc" />
        <path
           style="fill:#e9c13a;fill-rule:evenodd;stroke:#000000;stroke-width:1px;stroke-linecap:round;stroke-linejoin:round;stroke-opacity:1"
           d="m 32.134927,791.85191 c 0,0 -1.022228,9.88513 -0.978034,10.10611 0.04419,0.22097 0.604567,6.18795 0.441941,9.28077 -0.03052,0.58048 -0.08017,1.17251 -0.265165,1.72357 -0.266414,0.79358 -0.871243,1.43702 -1.193242,2.20971 -0.527022,1.26468 -0.869477,3.65099 -0.880743,4.05828 l -0.179918,6.50413 c 0,0 -1.13617,-2.67431 -1.679378,-4.02167 -0.744687,-1.84711 -1.755864,-3.61948 -2.165515,-5.56846 -0.348795,-1.65945 -0.319352,-3.38948 -0.220971,-5.08233 0.07531,-1.29593 0.325585,-2.58031 0.618719,-3.8449 0.49037,-2.11548 1.258182,-4.15693 1.900349,-6.23138 0.484325,-1.56455 1.472673,-4.68752 1.472673,-4.68752 z"
           id="path4771-99"
           inkscape:connector-curvature="0"
           sodipodi:nodetypes="cssssscssssscc" />
        <path
           style="fill:#e9c13a;fill-rule:evenodd;stroke:#000000;stroke-width:1px;stroke-linecap:round;stroke-linejoin:round;stroke-opacity:1"
           d="m 22.750108,809.63044 c 0,0 -2.38935,3.1039 -3.172089,4.87872 -0.780016,1.76865 -1.19401,3.69781 -1.458408,5.61266 -0.199522,1.44499 -0.102584,2.91658 -0.08839,4.37522 0.01808,1.85753 0.01749,3.72203 0.220971,5.56847 0.198451,1.80082 0.349319,3.64624 0.972272,5.3475 0.427717,1.16808 1.159426,2.20745 1.861247,3.23448 0.754935,1.10476 1.576364,2.17486 2.513976,3.12948 1.128711,1.14919 3.535534,3.09359 3.71231,3.09359 0.176777,0 1.978836,0.96519 3.049398,1.14905 1.437659,0.2469 4.375224,-0.0884 4.375224,-0.0884 0,0 -2.520784,-1.33135 -3.49134,-2.34229 -0.897627,-0.93497 -1.461191,-2.15138 -2.032932,-3.31457 -0.639646,-1.30134 -1.154218,-2.66996 -1.546796,-4.06586 -0.434138,-1.54367 -0.639176,-3.144 -0.883884,-4.72878 -0.20383,-1.32005 -0.200994,-2.67257 -0.486136,-3.97747 -0.227757,-1.04229 -0.579541,-2.05743 -0.972271,-3.0494 -0.52877,-1.33558 -1.467559,-2.50621 -1.856156,-3.88909 -0.544856,-1.93895 -0.510668,-3.99925 -0.618718,-6.0104 -0.09211,-1.71454 -0.02456,-5.15097 -0.02456,-5.15097"
           id="path4773"
           inkscape:connector-curvature="0"
           sodipodi:nodetypes="cssssssssscssssssssc" />
        <path
           style="fill:#1780ce;fill-rule:evenodd;stroke:#000000;stroke-width:1px;stroke-linecap:round;stroke-linejoin:round;stroke-opacity:1"
           d="m 21.481746,840.49455 c 0,0 -0.266269,2.88798 -0.401125,4.33181 -0.189893,2.03308 -0.309475,4.07414 -0.574524,6.0988 -0.496376,3.79171 -0.954892,7.60836 -1.90035,11.31371 -0.200419,0.78546 -0.756585,1.48841 -0.795495,2.2981 -0.0662,1.37759 0.691541,2.67137 0.972272,4.02167 0.453538,2.1815 0.941624,4.36646 1.149048,6.58493 0.200241,2.14164 0.08839,6.45235 0.08839,6.45235 0,0 1.743315,-2.47767 2.474874,-3.8007 0.832441,-1.50548 1.470156,-3.11108 2.165514,-4.68458 0.827233,-1.87191 1.839503,-3.68476 2.386485,-5.65686 0.334087,-1.20453 0.667955,-2.46991 0.53033,-3.71231 -0.452752,-4.0872 -3.182076,-7.59938 -4.375223,-11.53468 -0.55264,-1.82275 -0.99937,-3.68481 -1.281631,-5.56846 -0.304261,-2.03047 -0.438565,-6.14378 -0.438565,-6.14378 z"
           id="path4775"
           inkscape:connector-curvature="0"
           sodipodi:nodetypes="csssssscssssssc" />
        <path
           style="fill:#1780ce;fill-rule:evenodd;stroke:#000000;stroke-width:1px;stroke-linecap:round;stroke-linejoin:round;stroke-opacity:1"
           d="m 27.599262,855.9191 c 0,0 1.099422,2.01534 1.713214,2.98434 0.661081,1.04366 1.276178,2.13712 2.117525,3.04177 0.384939,0.4139 1.229494,1.04496 1.317882,1.06706 0.08839,0.0221 1.054068,0.57887 1.613087,0.79549 0.965103,0.37399 1.992769,0.56092 2.983107,0.86179 1.020813,0.31013 2.014182,0.71427 3.049398,0.97227 0.799067,0.19915 1.611278,0.35979 2.430679,0.44194 0.733042,0.0735 1.473124,0.0303 2.209709,0.0442 0.824942,0.0156 1.660214,-0.0866 2.474874,0.0442 1.081148,0.17355 3.137786,0.97227 3.137786,0.97227 0,0 -0.976472,-1.54176 -1.59099,-2.20971 -0.813542,-0.88427 -1.736536,-1.6814 -2.740039,-2.34229 -0.891349,-0.58703 -1.86975,-1.04903 -2.872621,-1.41421 -2.494452,-0.90831 -5.21141,-1.07334 -7.733981,-1.90035 -2.780287,-0.9115 -8.10963,-3.35877 -8.10963,-3.35877 z"
           id="path4783"
           inkscape:connector-curvature="0"
           sodipodi:nodetypes="cssssssssscssssc" />
        <path
           style="fill:#1780ce;fill-rule:evenodd;stroke:#000000;stroke-width:1px;stroke-linecap:round;stroke-linejoin:round;stroke-opacity:1"
           d="m 39.818951,862.06209 c 0.958126,0.25295 2.916815,0.57453 2.916815,0.57453 0,0 -1.12639,-2.44008 -1.944544,-3.49134 -0.659242,-0.84707 -1.409357,-1.6789 -2.342291,-2.20971 -1.491429,-0.84858 -3.276876,-1.03219 -4.949747,-1.41422 -1.267899,-0.28955 -2.558346,-0.47264 -3.844893,-0.66291 -1.148056,-0.16979 -3.455358,-0.4269 -3.455358,-0.4269 0,0 4.339241,3.82985 4.516018,3.87405 0.176777,0.0442 2.282602,1.33065 3.49134,1.85615 0.871571,0.37891 1.795723,0.62313 2.695844,0.92808 0.970671,0.32885 1.925903,0.71066 2.916816,0.97227 z"
           id="path4781"
           inkscape:connector-curvature="0"
           sodipodi:nodetypes="scsssscssss" />
        <path
           style="display:inline;fill:none;fill-rule:evenodd;stroke:#000000;stroke-width:0.6448819;stroke-linecap:round;stroke-linejoin:round;stroke-miterlimit:4;stroke-dasharray:none;stroke-opacity:1"
           d="m 38.368638,859.95445 c -10.390777,-5.11059 -6.840763,-3.97186 -10.261144,-5.95779"
           id="path4756"
           inkscape:connector-curvature="0"
           sodipodi:nodetypes="cc" />
        <path
           style="display:inline;fill:none;fill-rule:evenodd;stroke:#000000;stroke-width:0.6448819;stroke-linecap:round;stroke-linejoin:round;stroke-miterlimit:4;stroke-dasharray:none;stroke-opacity:1"
           d="m 21.862307,846.21109 c -0.777183,17.86015 3.687624,18.79843 0.293942,25.86987"
           id="path4748"
           inkscape:connector-curvature="0"
           sodipodi:nodetypes="cc" />
        <path
           style="fill:#1780ce;fill-rule:evenodd;stroke:#000000;stroke-width:1px;stroke-linecap:round;stroke-linejoin:round;stroke-opacity:1"
           d="m 21.481746,840.49455 c 0,0 -0.896726,1.95508 -1.019843,3.00599 -0.146343,1.24916 0.109708,2.52266 0.353553,3.7565 0.249362,1.26175 0.570524,2.53066 1.126951,3.69022 0.5091,1.06093 1.878255,2.87262 1.988738,2.91681 0.110488,0.0442 1.222282,0.87437 1.878253,1.23744 1.147757,0.63527 2.307483,1.31532 3.579728,1.63518 0.780234,0.19616 1.609252,0.0635 2.408582,0.15468 1.713232,0.19544 5.104427,0.83969 5.104427,0.83969 0,0 -2.276002,-3.0052 -2.430679,-3.09359 -0.154682,-0.0884 -2.752039,-2.89269 -4.308932,-4.13215 -1.240277,-0.9874 -2.727857,-1.63191 -3.977476,-2.60746 -0.924463,-0.72171 -1.850641,-1.47233 -2.585359,-2.38649 -0.603838,-0.75131 -1.089889,-1.6063 -1.458408,-2.49697 -0.33195,-0.80228 -0.659535,-2.51985 -0.659535,-2.51985"
           id="path4777"
           inkscape:connector-curvature="0"
           sodipodi:nodetypes="cssssssscsssssc" />
        <path
           style="fill:#1780ce;fill-rule:evenodd;stroke:#000000;stroke-width:1px;stroke-linecap:round;stroke-linejoin:round;stroke-opacity:1"
           d="m 38.183766,872.6245 c 0.815347,1.45398 1.647821,2.93465 2.784233,4.15425 0.34351,0.36866 1.016468,0.83969 1.193243,0.92808 0.176779,0.0884 1.901485,0.8863 2.872621,1.28163 1.221669,0.49732 2.523856,0.79785 3.712311,1.37002 0.666972,0.32111 1.290774,0.72908 1.900349,1.14905 0.630927,0.43469 1.251343,0.89198 1.811961,1.41421 1.030353,0.95981 2.828428,3.13779 2.828428,3.13779 0,0 -0.201802,-1.89843 -0.530331,-2.78423 -0.43143,-1.16325 -1.081632,-2.25695 -1.856155,-3.22618 -1.112918,-1.39269 -2.577129,-2.46676 -3.933281,-3.62392 -0.813831,-0.69441 -1.598007,-1.44452 -2.519068,-1.98874 -1.142447,-0.67503 -2.489714,-0.9367 -3.668117,-1.5468 -1.263282,-0.65404 -2.518665,-1.35832 -3.623922,-2.2539 -1.378099,-1.11666 -2.109831,-2.19308 -2.109831,-2.19308 0,0 0.103009,2.33694 1.137559,4.18182 z"
           id="path4789"
           inkscape:connector-curvature="0"
           sodipodi:nodetypes="ssssssscsssssscs" />
        <path
           style="fill:#1780ce;fill-rule:evenodd;stroke:#000000;stroke-width:1px;stroke-linecap:round;stroke-linejoin:round;stroke-opacity:1"
           d="m 35.470045,866.79802 c 0,0 1.053051,4.41574 1.299508,6.66617 0.187698,1.71389 0.04261,3.44893 0.132582,5.17072 0.05861,1.12154 0.04175,2.25813 0.265165,3.35875 0.12974,0.63915 0.365017,1.25534 0.618719,1.85616 0.3742,0.88618 0.747777,1.79436 1.325825,2.56326 0.707574,0.94119 2.386485,2.2981 2.563262,2.43068 0.176777,0.13258 3.579728,2.51907 3.579728,2.51907 0,0 -0.176777,-2.34229 -0.397748,-2.38649 -0.22097,-0.0442 -0.462148,-2.14683 -0.662912,-3.22617 -0.245797,-1.32145 -0.39373,-2.6606 -0.662913,-3.97748 -0.156348,-0.76488 -0.32413,-1.52943 -0.552427,-2.276 -0.526134,-1.72054 -0.978665,-3.50208 -1.878252,-5.06023 -0.577398,-1.00009 -1.513604,-1.74678 -2.209957,-2.66801 -1.212782,-1.60444 -3.42058,-4.97043 -3.42058,-4.97043"
           id="path4785"
           inkscape:connector-curvature="0"
           sodipodi:nodetypes="csssssscssssssc" />
        <path
           style="fill:#e9c13a;fill-rule:evenodd;stroke:#000000;stroke-width:1px;stroke-linecap:round;stroke-linejoin:round;stroke-opacity:1"
           d="m 51.254892,896.9147 c 0,0 -1.264133,2.73651 -1.713223,4.17085 -0.306509,0.97895 -0.504909,1.99163 -0.662913,3.0052 -0.271167,1.7395 -0.452536,3.49892 -0.486136,5.25911 -0.03125,1.63727 0.09869,3.27646 0.265165,4.90555 0.190826,1.86742 0.83969,5.56847 0.83969,5.56847 0,0 1.03946,-1.50869 1.502602,-2.2981 0.72355,-1.23327 1.426228,-2.48614 1.988737,-3.8007 0.379365,-0.88656 0.694748,-1.80438 0.928078,-2.74004 0.198654,-0.79661 0.607094,-2.33219 0.752793,-3.14016 0.554238,-3.07352 0.76802,-5.43675 1.456916,-8.48291 0.301851,-1.33473 0.600907,-2.67366 1.016466,-3.97747 0.190979,-0.59919 0.676784,-1.76111 0.676784,-1.76111 l -2.08498,-0.35385 -4.374851,3.55082"
           id="path4793"
           inkscape:connector-curvature="0"
           sodipodi:nodetypes="csssscssssssccc" />
        <path
           style="fill:#e9c13a;fill-rule:evenodd;stroke:#000000;stroke-width:1px;stroke-linecap:round;stroke-linejoin:round;stroke-opacity:1"
           d="m 38.413702,909.94441 c 0,0 -0.343336,2.22088 -0.450907,3.33873 -0.146997,1.52755 -0.237271,3.06183 -0.265165,4.59619 -0.03776,2.07725 -0.03295,4.16039 0.132583,6.23138 0.136276,1.70499 0.251676,3.43365 0.707107,5.08233 0.50269,1.81976 0.712565,2.63708 1.647208,4.27741 0.172121,0.30208 1.044735,2.09695 1.181219,1.77719 0.537677,-1.25971 0.669245,-1.72194 0.928077,-2.60745 0.441129,-1.50918 0.762121,-2.34536 1.060661,-3.88909 0.325578,-1.68354 0.689441,-4.07799 0.795495,-5.78944 0.115769,-1.86823 0.453806,-4.74131 0.495689,-6.61266 0.0476,-2.12697 0.121105,-2.74928 0.354331,-4.86396 0.146853,-1.33151 0.39494,-3.36095 0.701575,-4.66497 0.323103,-1.37405 0.546795,-2.50199 1.013386,-3.83417 0.288282,-0.82308 2.073345,-3.85033 2.073345,-3.85033 l -6.029115,5.95907 -4.351586,4.85686"
           id="path4795"
           inkscape:connector-curvature="0"
           sodipodi:nodetypes="csssssssssssssccc" />
        <path
           style="fill:#e9c13a;fill-rule:evenodd;stroke:#000000;stroke-width:1px;stroke-linecap:round;stroke-linejoin:round;stroke-opacity:1"
           d="m 26.849074,925.53438 c 0,0 -0.522775,2.87507 -0.661574,4.32782 -0.204243,2.13772 -0.288301,4.29039 -0.25,6.4375 0.02497,1.39949 0.12881,2.79989 0.3125,4.1875 0.247728,1.87136 0.566492,3.74114 1.0625,5.5625 0.488275,1.79296 1.115265,3.55414 1.875,5.25 0.426898,0.95291 1.5,2.75 1.5,2.75 0,0 0.586043,-1.2748 0.8125,-1.9375 0.495135,-1.44895 0.8212,-2.59591 1.1875,-4.08267 0.362722,-1.47224 0.7116,-2.59686 1,-4.08544 0.321166,-1.6577 0.677824,-4.02384 0.813681,-5.70689 0.11566,-1.43284 0.118683,-2.96345 0.131383,-4.40089 0.02083,-2.35444 -0.195051,-4.18217 -0.174217,-6.53661 0.01327,-1.49994 -0.01695,-4.1924 0.104134,-5.6875 0.156762,-1.93564 0.04073,-2.57566 0.46967,-4.46967 0.386528,-1.70672 2.627109,-6.31463 2.627109,-6.31463 l -6.973884,8.89893 z"
           id="path4797"
           inkscape:connector-curvature="0"
           sodipodi:nodetypes="cssssscssssssssccc" />
        <path
           style="display:inline;fill:#1780ce;fill-rule:evenodd;stroke:#000000;stroke-width:1px;stroke-linecap:round;stroke-linejoin:round;stroke-opacity:1"
           d="m 21.662939,979.81812 c 0,0 -1.53807,5.76526 -2.444189,8.60658 -0.369374,1.15825 -0.854101,2.27776 -1.21875,3.4375 -0.583305,1.85516 -1.547997,5.625 -1.547997,5.625 v 19.875 c 0,0 1.468622,-3.126 2.047997,-4.75 0.356746,-1 0.676674,-2.0195 0.875,-3.0625 0.35975,-1.8919 0.332518,-3.838 0.5625,-5.75 0.29907,-2.4864 0.6693,-4.96422 1.0625,-7.4375 0.45495,-2.86169 1.400152,-5.66659 1.5,-8.5625 0.09218,-2.67353 -0.837061,-7.98158 -0.837061,-7.98158 z"
           id="path4803"
           inkscape:connector-curvature="0"
           sodipodi:nodetypes="cssccsssssc" />
        <path
           style="display:inline;fill:none;fill-rule:evenodd;stroke:#000000;stroke-width:0.6448819;stroke-linecap:round;stroke-linejoin:round;stroke-miterlimit:4;stroke-dasharray:none;stroke-opacity:1"
           d="m 24.57196,977.76244 c -2.251501,7.44793 -5.218075,14.53833 -6.187184,22.62746"
           id="path4774"
           inkscape:connector-curvature="0"
           sodipodi:nodetypes="cc" />
        <path
           style="fill:#e9c13a;fill-rule:evenodd;stroke:#000000;stroke-width:1px;stroke-linecap:round;stroke-linejoin:round;stroke-opacity:1"
           d="m 28.425307,993.87265 c 0,0 -0.414998,3.11127 -0.487807,4.67705 -0.08807,1.8939 -0.04558,3.7946 0.0625,5.6875 0.103871,1.8192 0.251131,3.6421 0.5625,5.4375 0.373863,2.1557 0.884019,4.295 1.5625,6.375 0.984996,3.0197 3.5,8.125 3.625,8.8125 0.125,0.6875 4,6 4,6 0,0 1.166404,-1.5777 1.4375,-2.5 0.705925,-2.4015 0.458084,-4.9983 0.375,-7.5 -0.05361,-1.6142 -0.255409,-3.2269 -0.5625,-4.8125 -0.541979,-2.7984 -1.194385,-5.6022 -2.25,-8.25 -0.717979,-1.8009 -1.772366,-3.4508 -2.75,-5.125 -1.751292,-2.99908 -5.574693,-8.80205 -5.574693,-8.80205 z"
           id="path4812"
           inkscape:connector-curvature="0"
           sodipodi:nodetypes="cssssscsssssc" />
        <path
           style="fill:#1780ce;fill-rule:evenodd;stroke:#000000;stroke-width:1px;stroke-linecap:round;stroke-linejoin:round;stroke-opacity:1"
           d="m 26.16322,997.69076 c 0,0 -2.631946,5.53914 -3.66322,8.42144 -0.693153,1.9373 -1.156668,3.9496 -1.6875,5.9375 -0.42106,1.5768 -0.988089,3.1302 -1.1875,4.75 -0.358913,2.9155 -0.12065,5.8775 0,8.8125 0.07298,1.7753 0.4375,5.3125 0.4375,5.3125 0,0 1.825984,-2.4761 2.6875,-3.75 1.259432,-1.8623 2.489205,-3.7473 3.625,-5.6875 0.668661,-1.1422 1.430488,-2.2533 1.875,-3.5 0.327961,-0.9198 0.455363,-1.9044 0.5625,-2.875 0.17149,-1.5536 0.221078,-3.1274 0.125,-4.6875 -0.231142,-3.7532 -1.682184,-11.15495 -1.682184,-11.15495 z"
           id="path4810"
           inkscape:connector-curvature="0"
           sodipodi:nodetypes="csssscssssscc" />
        <path
           style="display:inline;fill:#1780ce;fill-rule:evenodd;stroke:#000000;stroke-width:1px;stroke-linecap:round;stroke-linejoin:round;stroke-opacity:1"
           d="m 24.4375,981.6122 c 0,0 -2.042689,3.36267 -2.75,5.1875 -0.513152,1.32391 -0.898993,2.71457 -1.0625,4.125 -0.112782,0.97287 -0.0073,1.9606 0.0625,2.9375 0.122624,1.71662 0.189257,3.46009 0.625,5.125 0.484885,1.8527 2.1875,5.3125 2.1875,5.3125 0,0 1.812002,-2.4145 2.5,-3.75 0.724725,-1.40681 1.329358,-2.89605 1.6875,-4.4375 0.506686,-2.18079 0.848515,-4.4598 0.625,-6.6875 -0.115146,-1.14762 -0.518291,-2.26453 -1,-3.3125 -0.743415,-1.61732 -2.875,-4.5 -2.875,-4.5 z"
           id="path4805"
           inkscape:connector-curvature="0"
           sodipodi:nodetypes="csssscssssc" />
        <path
           style="display:inline;fill:none;fill-rule:evenodd;stroke:#000000;stroke-width:0.6448819;stroke-linecap:round;stroke-linejoin:round;stroke-miterlimit:4;stroke-dasharray:none;stroke-opacity:1"
           d="m 26.187499,981.54971 c -0.991435,5.63259 -3.369246,10.71063 -2.25,17.1875"
           id="path4770"
           inkscape:connector-curvature="0"
           sodipodi:nodetypes="cc" />
        <path
           style="display:inline;fill:#1780ce;fill-rule:evenodd;stroke:#000000;stroke-width:1px;stroke-linecap:round;stroke-linejoin:round;stroke-opacity:1"
           d="m 26,968.4872 c -3.177906,4.77797 -3.01653,8.07409 -3.661612,13.44822 0.886484,3.07843 0.716979,4.76654 2.450063,7.46079 1.108487,1.72326 3.863719,4.66652 5.336549,6.09099 1.528495,1.47831 3.013256,3.05418 4.8125,4.1875 0.710599,0.4476 2.3125,1 2.3125,1 0,0 -0.954706,-2.68513 -1.3125,-4.0625 -0.646139,-2.48739 -0.919592,-5.05896 -1.5,-7.5625 -0.384611,-1.65899 -0.7874,-3.31749 -1.3125,-4.9375 -0.915047,-2.82306 -1.958003,-5.61238 -3.195203,-8.30984 C 28.775844,973.2864 26,968.4872 26,968.4872 Z"
           id="path4801"
           inkscape:connector-curvature="0"
           sodipodi:nodetypes="ccssscssssc" />
        <path
           style="fill:#e9c13a;fill-rule:evenodd;stroke:#000000;stroke-width:1px;stroke-linecap:round;stroke-linejoin:round;stroke-opacity:1"
           d="m 49.497475,1018.5095 c 0,0 1.333114,3.3121 2.209708,4.8613 0.792872,1.4012 1.622105,2.8189 2.740039,3.9775 1.783983,1.8488 3.913242,3.4004 6.187185,4.5962 2.177083,1.1448 4.597721,1.7846 6.982679,2.3865 0.695061,0.1754 2.12132,0.3535 2.12132,0.3535 0,0 -0.377793,-1.6826 -0.707106,-2.4748 -0.440469,-1.0596 -1.015211,-2.0694 -1.679379,-3.0052 -1.594561,-2.2467 -3.345833,-4.445 -5.480078,-6.1872 -1.370197,-1.1185 -2.952805,-1.9977 -4.596194,-2.6517 -2.476593,-0.9856 -7.778174,-1.8561 -7.778174,-1.8561 z"
           id="path4821"
           inkscape:connector-curvature="0"
           sodipodi:nodetypes="csssscssssc" />
        <path
           style="fill:#e9c13a;fill-rule:evenodd;stroke:#000000;stroke-width:1px;stroke-linecap:round;stroke-linejoin:round;stroke-opacity:1"
           d="m 64.34375,1016.0497 c 0.542186,-0.3627 1.062206,-0.7653 1.53125,-1.2187 0.3347,-0.3235 0.598742,-0.713 0.90625,-1.0625 0.604071,-0.6865 1.125521,-1.4653 1.84375,-2.0313 0.783565,-0.6175 1.696898,-1.0716 2.625,-1.4375 0.940167,-0.3706 1.940311,-0.586 2.9375,-0.75 1.89674,-0.3119 3.842395,-0.201 5.75,-0.4375 1.825271,-0.2263 5.4375,-0.9375 5.4375,-0.9375 0,0 -1.966734,1.7407 -2.9375,2.625 -1.471199,1.3402 -2.82988,2.8083 -4.375,4.0625 -1.148884,0.9326 -2.303294,1.8971 -3.625,2.5625 -1.371084,0.6903 -2.867474,1.1482 -4.375,1.4375 -1.410849,0.2708 -2.915706,0.6444 -4.301569,0.266 -1.21813,-0.3326 -3.137471,-2.1228 -3.137471,-2.1228 0,0 1.17509,-0.5909 1.72029,-0.9557 z"
           id="path4823"
           inkscape:connector-curvature="0"
           sodipodi:nodetypes="ssssssscssssscs" />
        <path
           style="fill:#e9c13a;fill-rule:evenodd;stroke:#000000;stroke-width:1px;stroke-linecap:butt;stroke-linejoin:miter;stroke-opacity:1"
           d="m 71.416739,1027.182 c 0,0 2.095628,1.933 3.271415,2.7296 1.025915,0.695 2.131447,1.2794 3.270369,1.7677 2.363494,1.0133 4.80324,1.9429 7.336233,2.3865 1.800242,0.3153 5.480077,0.1768 5.480077,0.1768 0,0 -1.412685,-2.1072 -2.298097,-3.0052 -1.237384,-1.2549 -2.683937,-2.2988 -4.154252,-3.2704 -1.177035,-0.7778 -2.364935,-1.6146 -3.712311,-2.0329 -1.951465,-0.6059 -4.057147,-0.7024 -6.098796,-0.6187 -0.808338,0.033 -2.386485,0.4419 -2.386485,0.4419 z"
           id="path4827"
           inkscape:connector-curvature="0"
           sodipodi:nodetypes="cssscsssscc" />
        <path
           style="fill:#e9c13a;fill-rule:evenodd;stroke:#000000;stroke-width:1px;stroke-linecap:round;stroke-linejoin:round;stroke-opacity:1"
           d="m 72.060253,1022.2589 c 0,0 1.725715,-1.5297 2.627901,-2.2468 1.203987,-0.957 2.431615,-1.8884 3.71231,-2.7401 1.62829,-1.0828 3.42804,-1.8955 5.038136,-3.0052 1.329845,-0.9165 2.761356,-1.769 3.800699,-3.0052 0.517502,-0.6155 1.149049,-2.1213 1.149049,-2.1213 0,0 0.286046,1.5963 0.176776,2.3865 -0.141719,1.0248 -0.615704,1.9828 -1.06066,2.9168 -0.738882,1.5509 -1.49078,3.153 -2.65165,4.4194 -0.983629,1.073 -1.783933,2.0364 -3.005204,2.8285 -1.112248,0.7214 -2.696334,1.3725 -3.974905,1.7229 -1.789293,0.4904 -5.565433,0.064 -5.565433,0.064 z"
           id="path4825"
           inkscape:connector-curvature="0"
           sodipodi:nodetypes="csssscssssscc" />
        <path
           style="display:inline;fill:none;fill-rule:evenodd;stroke:#000000;stroke-width:0.6448819;stroke-linecap:round;stroke-linejoin:round;stroke-miterlimit:4;stroke-dasharray:none;stroke-opacity:1"
           d="m 54.693587,1020.0769 c 2.938461,3.4681 5.312342,7.3126 9.556411,9.9103"
           id="path4784"
           inkscape:connector-curvature="0"
           sodipodi:nodetypes="cc" />
        <path
           style="display:inline;fill:none;fill-rule:evenodd;stroke:#000000;stroke-width:0.6448819;stroke-linecap:round;stroke-linejoin:round;stroke-miterlimit:4;stroke-dasharray:none;stroke-opacity:1"
           d="m 61.120543,1018.736 c 6.513282,-1.7668 12.880081,-3.9241 18.691955,-7.5613"
           id="path4786"
           inkscape:connector-curvature="0"
           sodipodi:nodetypes="cc" />
        <path
           style="display:inline;fill:none;fill-rule:evenodd;stroke:#000000;stroke-width:0.6448819;stroke-linecap:round;stroke-linejoin:round;stroke-miterlimit:4;stroke-dasharray:none;stroke-opacity:1"
           d="m 86.437498,1032.2997 c -4.849738,-1.5654 -10.632886,-5.6198 -16.13574,-8.9268"
           id="path4790"
           inkscape:connector-curvature="0"
           sodipodi:nodetypes="cc" />
        <path
           style="display:inline;fill:none;fill-rule:evenodd;stroke:#000000;stroke-width:0.6448819;stroke-linecap:round;stroke-linejoin:round;stroke-miterlimit:4;stroke-dasharray:none;stroke-opacity:1"
           d="m 84.499998,1015.7997 c -3.086933,3.506 -7.967136,5.7567 -13.395282,7.6239"
           id="path4788"
           inkscape:connector-curvature="0"
           sodipodi:nodetypes="cc" />
        <path
           style="fill:#e9c13a;fill-rule:evenodd;stroke:#000000;stroke-width:1px;stroke-linecap:round;stroke-linejoin:round;stroke-opacity:1"
           d="m 43.229105,1009.81 c 0,0 2.697842,0.5443 4.058661,0.7445 1.847698,0.2718 3.751064,0.1887 5.568466,0.6187 1.40606,0.3327 2.804848,0.7973 4.065864,1.5026 0.915646,0.5122 1.634069,1.3171 2.474874,1.9446 2.08334,1.5548 4.159506,3.1301 6.363961,4.5078 3.902232,2.4388 8.644574,3.6006 12.109203,6.6291 0.523536,0.4576 1.237437,1.6794 1.237437,1.6794 0,0 -3.270339,0.4418 -4.949747,0.088 -1.679349,-0.3537 -7.079234,-0.5846 -10.518214,-1.4142 -3.523816,-0.85 -6.937635,-2.1584 -10.253048,-3.624 -2.905573,-1.2844 -5.950923,-2.4807 -8.396893,-4.5078 -0.758164,-0.6283 -1.856155,-2.2981 -1.856155,-2.2981 z"
           id="path4819"
           inkscape:connector-curvature="0"
           sodipodi:nodetypes="csssssscsssscc" />
        <path
           style="display:inline;fill:none;fill-rule:evenodd;stroke:#000000;stroke-width:0.6448819;stroke-linecap:round;stroke-linejoin:round;stroke-miterlimit:4;stroke-dasharray:none;stroke-opacity:1"
           d="m 28.425307,993.87265 8.432633,30.82405"
           id="path4776"
           inkscape:connector-curvature="0" />
        <path
           style="display:inline;fill:none;fill-rule:evenodd;stroke:#000000;stroke-width:0.6448819;stroke-linecap:round;stroke-linejoin:round;stroke-miterlimit:4;stroke-dasharray:none;stroke-opacity:1"
           d="m 43.181309,1012.7453 c 8.799797,1.9658 20.192751,10.3656 28.97381,12.9065"
           id="path4782"
           inkscape:connector-curvature="0"
           sodipodi:nodetypes="cc" />
        <path
           style="fill:#e9c13a;fill-rule:evenodd;stroke:#000000;stroke-width:1px;stroke-linecap:round;stroke-linejoin:round;stroke-opacity:1"
           d="m 30.3125,996.9247 c 0,0 0.04758,4.5963 0.3125,6.875 0.208092,1.7899 0.503474,3.5803 1,5.3125 0.647093,2.2574 1.399407,4.5224 2.5625,6.5625 0.602719,1.0572 1.409407,1.9951 2.25,2.875 1.347047,1.4101 2.861377,2.6641 4.4375,3.8125 1.579627,1.1509 3.31073,2.0795 5,3.0625 1.974584,1.149 6,3.3125 6,3.3125 0,0 -1.27797,-3.9948 -2.0625,-5.9375 -1.263491,-3.1288 -2.600873,-6.2437 -4.25,-9.1875 -1.211478,-2.1626 -2.541203,-4.2806 -4.125,-6.1875 -1.46845,-1.768 -3.268374,-3.2326 -4.9375,-4.8125 -2.034544,-1.9258 -6.1875,-5.6875 -6.1875,-5.6875 z"
           id="path4814"
           inkscape:connector-curvature="0"
           sodipodi:nodetypes="csssssscssssc" />
        <path
           style="fill:#e9c13a;fill-rule:evenodd;stroke:#000000;stroke-width:1px;stroke-linecap:round;stroke-linejoin:round;stroke-opacity:1"
           d="m 39.6875,994.4247 c 0.99497,0.0629 2.030052,0.14963 2.9375,0.5625 1.782913,0.81119 3.138648,2.34924 4.625,3.625 1.06248,0.91194 1.944406,2.0322 3.0625,2.875 1.20115,0.9054 2.529689,1.6397 3.875,2.3125 2.698932,1.3499 8.375,3.4375 8.375,3.4375 0,0 -1.566363,0.5283 -2.375,0.6875 -1.911947,0.3765 -3.865224,0.6986 -5.8125,0.625 -1.947721,-0.074 -3.923931,-0.3809 -5.75,-1.0625 -1.539833,-0.5747 -2.956331,-1.2855 -4.382583,-2.1023 -1.262519,-0.723 -2.544065,-1.6135 -3.679917,-2.5227 -1.025191,-0.8206 -1.844759,-1.8813 -2.625,-2.9375 -0.766371,-1.03745 -2,-3.3125 -2,-3.3125 l -0.218498,-1.93755 c 0,0 2.645686,-0.3336 3.968498,-0.24995 z"
           id="path4816"
           inkscape:connector-curvature="0"
           sodipodi:nodetypes="ssssscssssssccs" />
        <path
           style="display:inline;fill:#e9c13a;fill-rule:evenodd;stroke:#000000;stroke-width:1px;stroke-linecap:round;stroke-linejoin:round;stroke-opacity:1"
           d="m 24.132564,930.43441 c 0,0 -2.347455,4.2133 -3.292216,6.42729 -0.782245,1.83314 -1.469077,3.71753 -1.956065,5.65018 -1.084312,4.30319 -2.127984,13.1422 -2.127984,13.1422 v 14.48583 l 2.462451,18.28479 c 0,0 1.562893,-4.69516 2.28125,-7.0625 0.553411,-1.82376 1.169028,-3.63518 1.5625,-5.5 0.651453,-3.0875 1.024889,-6.23266 1.3125,-9.375 0.349726,-3.82098 0.458341,-7.66327 0.5,-11.5 0.04163,-3.83401 -0.111565,-7.66826 -0.25,-11.5 -0.15381,-4.25729 -0.645,-12.76393 -0.645,-12.76393"
           id="path4799"
           inkscape:connector-curvature="0"
           sodipodi:nodetypes="csscccsssssc" />
        <path
           style="fill:#e9c13a;fill-rule:evenodd;stroke:#000000;stroke-width:1px;stroke-linecap:round;stroke-linejoin:round;stroke-opacity:1"
           d="m 104.20986,1000.1247 c 0,0 -3.6672,1.9911 -5.303299,3.2704 -1.526384,1.1935 -2.921055,2.5713 -4.154252,4.0658 -1.191001,1.4434 -2.152405,3.0672 -3.093592,4.6846 -0.980828,1.6855 -1.612748,3.5646 -2.651651,5.2149 -1.159062,1.8412 -3.966985,5.1831 -3.966985,5.1831 l 2.791855,-0.5892 c 0,0 3.717625,-2.3315 5.417771,-3.71 1.392068,-1.1287 2.583363,-2.4847 3.889087,-3.7123 0.789878,-0.7426 1.690071,-1.3788 2.386486,-2.2097 0.62999,-0.7516 1.12273,-1.6132 1.59099,-2.4749 0.47849,-0.8805 0.91616,-1.7907 1.23744,-2.74 0.41699,-1.2321 0.54633,-2.5446 0.88388,-3.8007 0.28782,-1.0711 0.97227,-3.182 0.97227,-3.182 z"
           id="path4829"
           inkscape:connector-curvature="0"
           sodipodi:nodetypes="cssssccssssssc" />
        <path
           style="fill:#e9c13a;fill-rule:evenodd;stroke:#000000;stroke-width:1px;stroke-linecap:round;stroke-linejoin:round;stroke-opacity:1"
           d="m 81.052115,1023.2824 c 0,0 2.466382,1.4293 3.71231,2.1214 1.84386,1.0242 3.632649,2.1677 5.568466,3.0052 1.881219,0.8139 3.907129,1.2445 5.833631,1.9445 1.964346,0.7137 3.837628,1.6784 5.833628,2.2981 1.50163,0.4662 4.5962,1.0607 4.5962,1.0607 0,0 -1.10286,-1.9947 -1.76777,-2.9169 -0.90457,-1.2546 -1.80906,-2.5549 -3.0052,-3.5355 -1.17292,-0.9616 -2.58719,-1.6035 -3.977479,-2.2097 -1.306719,-0.5697 -2.665347,-1.06 -4.065864,-1.3258 -1.449903,-0.2752 -2.946694,-0.1701 -4.419417,-0.2652 -2.334075,-0.1507 -7.000103,-0.4838 -7.000103,-0.4838 z"
           id="path4831"
           inkscape:connector-curvature="0"
           sodipodi:nodetypes="csssscssssscc" />
        <path
           style="fill:#e9c13a;fill-rule:evenodd;stroke:#000000;stroke-width:1px;stroke-linecap:round;stroke-linejoin:round;stroke-opacity:1"
           d="m 94.690153,1019.8693 c 0,0 4.158023,1.4055 6.184847,2.2429 2.4637,1.0179 4.85839,2.1977 7.25,3.375 2.14853,1.0577 6.12494,3.2502 6.375,3.3125 0.24994,0.062 2.5,1.5 2.5,1.5 0,0 -1.22409,-2.2916 -1.9375,-3.375 -0.68745,-1.044 -1.40069,-2.0828 -2.25,-3 -0.92281,-0.9965 -1.9686,-1.8825 -3.0625,-2.6875 -0.70793,-0.521 -1.42127,-1.0821 -2.25,-1.375 -0.75286,-0.2661 -1.57857,-0.2552 -2.375,-0.3125 -1.62095,-0.1165 -3.24989,-0.054 -4.875,-0.062 -1.53186,-0.01 -4.595622,0.012 -4.595622,0.012 z"
           id="path4833"
           inkscape:connector-curvature="0"
           sodipodi:nodetypes="cssscsssssscc" />
        <path
           style="fill:#e9c13a;fill-rule:evenodd;stroke:#000000;stroke-width:1px;stroke-linecap:round;stroke-linejoin:round;stroke-opacity:1"
           d="m 115.9375,985.8622 c 0.0588,-0.31804 -0.0133,-0.74973 0.25,-0.9375 0.23808,-0.16977 0.62978,-0.0968 0.875,0.0625 0.59401,0.38585 0.74937,1.21249 1,1.875 0.92438,2.44348 1.54891,5.02584 1.8125,7.625 0.13459,1.32718 0.0654,2.67967 -0.125,4 -0.35338,2.4507 -0.86735,4.9258 -1.875,7.1875 -0.47736,1.0714 -1.15861,2.0605 -1.9375,2.9375 -1.05038,1.1827 -2.36283,2.109 -3.625,3.0625 -1.04198,0.7871 -2.09632,1.5757 -3.25,2.1875 -2.66722,1.4145 -8.40175,3.3828 -8.40175,3.3828 0,0 3.55797,-2.9641 4.90175,-4.8203 1.29484,-1.7886 2.18672,-3.8609 2.9375,-5.9375 0.48793,-1.3496 0.71856,-2.7803 1,-4.1875 0.28144,-1.4072 0.37368,-2.84965 0.6875,-4.25 0.27972,-1.24821 0.57714,-2.50398 1.0625,-3.6875 0.41385,-1.00916 0.97683,-1.95486 1.5625,-2.875 0.58396,-0.91745 1.33876,-1.71713 1.9375,-2.625 0.38556,-0.58463 0.84383,-1.14719 1.0625,-1.8125 0.12428,-0.37812 0.0527,-0.79611 0.125,-1.1875 z"
           id="path4835"
           inkscape:connector-curvature="0"
           sodipodi:nodetypes="sssssssssscsssssssss" />
        <path
           style="fill:#e9c13a;fill-rule:evenodd;stroke:#000000;stroke-width:1px;stroke-linecap:round;stroke-linejoin:round;stroke-opacity:1"
           d="m 110.3125,1015.4247 c 0,0 3.26025,-1.77 4.6875,-2.9375 1.31171,-1.073 2.30955,-2.4814 3.5,-3.6875 0.79688,-0.8074 1.58814,-1.623 2.4375,-2.375 1.12059,-0.9921 2.19587,-2.0781 3.5,-2.8125 1.27487,-0.7179 2.71798,-1.0989 4.125,-1.5 1.26918,-0.3618 3.875,-0.8125 3.875,-0.8125 0,0 -1.40977,2.4776 -2.25,3.625 -0.79435,1.0848 -1.64146,2.1458 -2.625,3.0625 -1.17655,1.0966 -2.44668,2.1356 -3.875,2.875 -1.24619,0.6451 -2.64289,0.9555 -4,1.3125 -0.71914,0.1892 -1.47599,0.2214 -2.1875,0.4375 -2.50251,0.7601 -7.25,3 -7.25,3"
           id="path4837"
           inkscape:connector-curvature="0"
           sodipodi:nodetypes="cssssscsssssc" />
        <path
           style="display:inline;fill:none;fill-rule:evenodd;stroke:#000000;stroke-width:0.6448819;stroke-linecap:round;stroke-linejoin:round;stroke-miterlimit:4;stroke-dasharray:none;stroke-opacity:1"
           d="m 116.3125,991.73721 c 0.021,9.80139 -4.28195,17.47729 -11.20439,23.86579"
           id="path4798"
           inkscape:connector-curvature="0"
           sodipodi:nodetypes="cc" />
        <path
           style="fill:#e9c13a;fill-rule:evenodd;stroke:#000000;stroke-width:1px;stroke-linecap:round;stroke-linejoin:round;stroke-opacity:1"
           d="m 100.66075,1017.245 c 0,0 3.19897,-1.5665 4.83925,-2.2578 0.9235,-0.3892 1.84917,-0.7862 2.8125,-1.0625 1.12324,-0.3221 2.27618,-0.5579 3.4375,-0.6875 0.82845,-0.092 1.66772,-0.1088 2.5,-0.062 1.21785,0.068 2.40885,0.4061 3.625,0.5 1.20492,0.093 2.41715,0.1019 3.625,0.062 1.25365,-0.041 2.49814,-0.2337 3.75,-0.3125 0.97812,-0.062 1.96373,-0.2358 2.9375,-0.125 0.62271,0.071 1.5735,-0.079 1.8125,0.5 0.19215,0.4658 -0.40274,0.9474 -0.75,1.3125 -0.8523,0.8962 -2.02113,1.4423 -3.125,2 -1.45388,0.7345 -2.99079,1.3223 -4.5625,1.75 -1.1005,0.2995 -2.23462,0.5445 -3.375,0.5625 -1.40819,0.022 -2.81546,-0.2447 -4.1875,-0.5625 -0.96272,-0.223 -1.87383,-0.6285 -2.8125,-0.9375 -0.83231,-0.274 -1.63991,-0.6451 -2.5,-0.8125 -1.45551,-0.2833 -2.95519,-0.3519 -4.4375,-0.3125 -1.20516,0.032 -3.58925,0.4453 -3.58925,0.4453 z"
           id="path4839"
           inkscape:connector-curvature="0"
           sodipodi:nodetypes="csssssssssssssssssc" />
        <path
           style="fill:#e9c13a;fill-rule:evenodd;stroke:#000000;stroke-width:1px;stroke-linecap:round;stroke-linejoin:round;stroke-opacity:1"
           d="m 123.03658,960.88026 c 0,0 -2.15059,8.1858 -2.65164,12.37437 -0.25906,2.1656 -0.17492,4.3597 -0.17679,6.54074 -0.002,2.3283 -0.0616,4.66661 0.17678,6.98268 0.20239,1.96603 0.87937,3.86554 1.06066,5.83363 0.20749,2.25242 0.0262,6.78583 0.0262,6.78583 1.51507,-0.91924 2.22207,-2.36554 3.22713,-3.68779 0.48214,-0.89424 1.24165,-2.35923 1.44639,-3.35432 0.69308,-3.36852 1.18795,-5.94546 1.39905,-9.37805 0.16096,-2.61741 0.43496,-5.26721 0.0884,-7.86656 -0.27117,-2.03385 -1.05935,-3.96609 -1.67937,-5.92202 -0.88695,-2.798 -2.91681,-8.30851 -2.91681,-8.30851 z"
           id="path4881"
           inkscape:connector-curvature="0"
           sodipodi:nodetypes="cssssccssssc" />
        <path
           style="fill:#1780ce;fill-rule:evenodd;stroke:#000000;stroke-width:1px;stroke-linecap:round;stroke-linejoin:round;stroke-opacity:1"
           d="m 124.89274,918.1003 c 0,0 -2.10313,4.55529 -3.00521,6.8943 -0.99572,2.58179 -2.06344,5.16265 -2.65165,7.86656 -1.03262,4.74677 -1.29554,9.64232 -1.5026,14.49569 -0.13942,3.26792 -0.102,6.5521 0.17678,9.8111 0.4624,5.40557 2.47488,16.08668 2.47488,16.08668 0,0 1.91097,-8.22147 2.65164,-12.37437 0.58527,-3.28155 1.00576,-6.59128 1.41421,-9.89949 0.52269,-4.23345 1.06476,-8.47032 1.32583,-12.72792 0.19298,-3.14716 0.30312,-6.30702 0.17678,-9.45756 -0.14355,-3.57961 -1.06066,-10.69499 -1.06066,-10.69499 z"
           id="path4843"
           inkscape:connector-curvature="0"
           sodipodi:nodetypes="csssscssssc" />
        <path
           style="display:inline;fill:none;fill-rule:evenodd;stroke:#000000;stroke-width:0.6448819;stroke-linecap:round;stroke-linejoin:round;stroke-miterlimit:4;stroke-dasharray:none;stroke-opacity:1"
           d="m 123.3125,928.48721 c -2.11392,13.26502 -1.98964,27.39089 -2.72653,41.18553"
           id="path4813"
           inkscape:connector-curvature="0"
           sodipodi:nodetypes="cc" />
        <path
           style="fill:#1780ce;fill-rule:evenodd;stroke:#000000;stroke-width:1px;stroke-linecap:round;stroke-linejoin:round;stroke-opacity:1"
           d="m 111.72287,927.55786 c 0,0 -0.0389,5.54177 0.0884,8.3085 0.18339,3.98644 0.28465,8.00146 0.97227,11.93243 0.36823,2.10505 1.14282,4.11862 1.67938,6.18718 0.7392,2.84976 1.27381,5.75423 2.12132,8.57367 1.08913,3.62326 3.8007,10.69499 3.8007,10.69499 0,0 0.31725,-5.06511 0.35355,-7.60139 0.0472,-3.30002 0.0135,-6.60463 -0.17677,-9.8995 -0.15702,-2.71899 -0.33949,-5.44666 -0.7955,-8.13173 -0.39603,-2.3319 -0.99285,-4.63082 -1.67938,-6.89429 -0.57353,-1.89092 -1.20208,-3.77564 -2.03293,-5.56846 -1.2262,-2.6459 -4.33104,-7.6014 -4.33104,-7.6014 z"
           id="path4841"
           inkscape:connector-curvature="0"
           sodipodi:nodetypes="csssscsssssc" />
        <g
           id="g4853">
          <circle
             style="opacity:1;fill:#f4f2ef;fill-opacity:1;stroke:#000000;stroke-width:0.99921262;stroke-linecap:round;stroke-linejoin:round;stroke-miterlimit:4;stroke-dasharray:none;stroke-dashoffset:0;stroke-opacity:1"
             id="circle12458"
             cx="76.181099"
             cy="965.55115"
             r="42.020081" />
          <circle
             style="display:inline;opacity:1;fill:#000000;fill-opacity:1;stroke:#000000;stroke-width:0.99921262;stroke-linecap:round;stroke-linejoin:round;stroke-miterlimit:4;stroke-dasharray:none;stroke-dashoffset:0;stroke-opacity:1;enable-background:new"
             id="circle12468"
             cx="76.181099"
             cy="965.55115"
             r="38.476772" />
          <circle
             style="display:inline;opacity:1;fill:#000000;fill-opacity:1;stroke:#000000;stroke-width:0.99921262;stroke-linecap:round;stroke-linejoin:round;stroke-miterlimit:4;stroke-dasharray:none;stroke-dashoffset:0;stroke-opacity:1;enable-background:new"
             id="circle12460"
             cx="76.181099"
             cy="965.55115"
             r="34.933464" />
          <path
             sodipodi:type="star"
             style="display:inline;opacity:1;fill:#dd1d1d;fill-opacity:1;stroke:#000000;stroke-width:0.99921262;stroke-linecap:round;stroke-linejoin:round;stroke-miterlimit:4;stroke-dasharray:none;stroke-dashoffset:0;stroke-opacity:1;enable-background:new"
             id="path12462"
             sodipodi:sides="36"
             sodipodi:cx="76.181099"
             sodipodi:cy="965.55115"
             sodipodi:r1="34.933464"
             sodipodi:r2="27.772104"
             sodipodi:arg1="-1.4280017e-07"
             sodipodi:arg2="0.08726632"
             inkscape:flatsided="false"
             inkscape:rounded="0"
             inkscape:randomized="0"
             d="m 111.11456,965.55114 -7.26704,2.4205 6.73633,3.64563 -7.57696,1.12182 6.00093,4.76 -7.65665,-0.21095 5.0832,5.72974 -7.503693,-1.53731 4.011013,6.52537 -7.122745,-2.81695 2.816956,7.12274 -6.525374,-4.01101 1.537308,7.50369 -5.729734,-5.08319 0.210951,7.65664 -4.76,-6.00092 -1.121816,7.57695 -3.645635,-6.73632 -2.420497,7.26703 -2.420499,-7.26703 -3.645634,6.73632 -1.121818,-7.57695 -4.759998,6.00093 0.210949,-7.65665 -5.729733,5.0832 1.537307,-7.50369 -6.525373,4.01101 2.816953,-7.12275 -7.122742,2.81696 4.011009,-6.52537 -7.503691,1.5373 5.083192,-5.72973 -7.656644,0.21095 6.000925,-4.76 -7.576953,-1.12182 6.736322,-3.64563 -7.267041,-2.4205 7.267041,-2.4205 -6.736324,-3.64563 7.576953,-1.12182 -6.000926,-4.76 7.656644,0.21095 -5.083194,-5.72973 7.503692,1.53731 -4.011011,-6.52538 7.122743,2.81696 -2.816956,-7.12275 6.525374,4.01101 -1.537308,-7.50369 5.729734,5.08319 -0.210951,-7.65664 4.76,6.00093 1.121816,-7.57696 3.645635,6.73632 2.420497,-7.26704 2.420499,7.26704 3.645633,-6.73632 1.121819,7.57695 4.759998,-6.00092 -0.210949,7.65664 5.729733,-5.08319 -1.537307,7.50369 6.525373,-4.01101 -2.816954,7.12274 7.122741,-2.81695 -4.011007,6.52537 7.503687,-1.53731 -5.08319,5.72974 7.65665,-0.21096 -6.00093,4.76 7.57695,1.12182 -6.73632,3.64564 z" />
          <path
             style="opacity:1;fill:#000000;fill-opacity:1;stroke:#000000;stroke-width:0.99921262;stroke-linecap:round;stroke-linejoin:round;stroke-miterlimit:4;stroke-dasharray:none;stroke-dashoffset:0;stroke-opacity:1"
             d="m 93.89763,972.63777 c 0,0 -5.90005,0.6123 -7.81592,2.5755 -1.91587,1.9632 -2.38412,7.8764 -2.38412,7.8764 0,0 -4.60491,-3.739 -7.34782,-3.7056 -2.7429,0.033 -7.25528,3.8836 -7.25528,3.8836 0,0 -0.6123,-5.9 -2.57547,-7.8159 -1.96317,-1.9159 -7.87639,-2.3841 -7.87639,-2.3841 0,0 3.73901,-4.60492 3.70556,-7.34782 -0.0335,-2.7429 -3.88362,-7.25528 -3.88362,-7.25528 0,0 5.90005,-0.61229 7.81592,-2.57546 1.91588,-1.96317 2.38412,-7.8764 2.38412,-7.8764 0,0 4.60492,3.73902 7.34782,3.70557 2.7429,-0.0335 7.25528,-3.88363 7.25528,-3.88363 0,0 0.6123,5.90005 2.57547,7.81592 1.96317,1.91587 7.87639,2.38412 7.87639,2.38412 0,0 -3.73901,4.60492 -3.70556,7.34782 0.0335,2.74289 3.88362,7.25526 3.88362,7.25526 z"
             id="path12464"
             inkscape:connector-curvature="0"
             sodipodi:nodetypes="cacacacacacacacac" />
          <circle
             style="opacity:1;fill:#000000;fill-opacity:1;stroke:#000000;stroke-width:0.99921256;stroke-linecap:round;stroke-linejoin:round;stroke-miterlimit:4;stroke-dasharray:none;stroke-dashoffset:0;stroke-opacity:1"
             id="circle12466"
             cx="76.181099"
             cy="965.55115"
             r="12.964961" />
          <circle
             style="display:inline;opacity:1;fill:#dd1d1d;fill-opacity:1;stroke:#000000;stroke-width:0.99921268;stroke-linecap:round;stroke-linejoin:round;stroke-miterlimit:4;stroke-dasharray:none;stroke-dashoffset:0;stroke-opacity:1;enable-background:new"
             id="circle12472"
             cx="76.181099"
             cy="965.55115"
             r="9.2444887" />
          <circle
             style="opacity:1;fill:#000000;fill-opacity:1;stroke:#000000;stroke-width:1.35354328;stroke-linecap:round;stroke-linejoin:round;stroke-miterlimit:4;stroke-dasharray:none;stroke-dashoffset:0;stroke-opacity:1"
             id="circle12470"
             cx="76.181099"
             cy="965.55115"
             r="6.587008" />
        </g>
        <g
           id="g4871">
          <circle
             style="opacity:1;fill:#f4f2ef;fill-opacity:1;stroke:#000000;stroke-width:0.99921262;stroke-linecap:round;stroke-linejoin:round;stroke-miterlimit:4;stroke-dasharray:none;stroke-dashoffset:0;stroke-opacity:1"
             id="circle12439"
             cx="76.181099"
             cy="827.3623"
             r="42.020081" />
          <circle
             style="display:inline;opacity:1;fill:#000000;fill-opacity:1;stroke:#000000;stroke-width:0.99921262;stroke-linecap:round;stroke-linejoin:round;stroke-miterlimit:4;stroke-dasharray:none;stroke-dashoffset:0;stroke-opacity:1;enable-background:new"
             id="circle12450"
             cx="76.181099"
             cy="827.3623"
             r="38.476772" />
          <circle
             style="display:inline;opacity:1;fill:#000000;fill-opacity:1;stroke:#000000;stroke-width:0.99921262;stroke-linecap:round;stroke-linejoin:round;stroke-miterlimit:4;stroke-dasharray:none;stroke-dashoffset:0;stroke-opacity:1;enable-background:new"
             id="circle12441"
             cx="76.181099"
             cy="827.3623"
             r="34.933464" />
          <path
             sodipodi:type="star"
             style="display:inline;opacity:1;fill:#dd1d1d;fill-opacity:1;stroke:#000000;stroke-width:0.99921262;stroke-linecap:round;stroke-linejoin:round;stroke-miterlimit:4;stroke-dasharray:none;stroke-dashoffset:0;stroke-opacity:1;enable-background:new"
             id="path12444"
             sodipodi:sides="36"
             sodipodi:cx="76.181099"
             sodipodi:cy="827.3623"
             sodipodi:r1="34.933464"
             sodipodi:r2="27.772104"
             sodipodi:arg1="-1.4280017e-07"
             sodipodi:arg2="0.08726632"
             inkscape:flatsided="false"
             inkscape:rounded="0"
             inkscape:randomized="0"
             d="m 111.11456,827.3623 -7.26704,2.4205 6.73633,3.64563 -7.57696,1.12182 6.00093,4.76 -7.65665,-0.21095 5.0832,5.72973 -7.503693,-1.5373 4.011013,6.52537 -7.122745,-2.81695 2.816956,7.12274 -6.525374,-4.01101 1.537308,7.50369 -5.729734,-5.08319 0.210951,7.65664 -4.76,-6.00092 -1.121816,7.57695 -3.645635,-6.73632 -2.420497,7.26704 -2.420499,-7.26704 -3.645634,6.73632 -1.121818,-7.57695 -4.759998,6.00092 0.210949,-7.65664 -5.729733,5.08319 1.537307,-7.50369 -6.525373,4.01101 2.816953,-7.12274 -7.122742,2.81696 4.011009,-6.52538 -7.503691,1.53731 5.083192,-5.72973 -7.656644,0.21095 6.000925,-4.76 -7.576953,-1.12182 6.736322,-3.64563 -7.267041,-2.4205 7.267041,-2.4205 -6.736324,-3.64563 7.576953,-1.12182 -6.000926,-4.76 7.656644,0.21095 -5.083194,-5.72973 7.503692,1.5373 -4.011011,-6.52537 7.122743,2.81695 -2.816956,-7.12274 6.525374,4.01101 -1.537308,-7.50369 5.729734,5.08319 -0.210951,-7.65664 4.76,6.00092 1.121816,-7.57695 3.645635,6.73632 2.420497,-7.26704 2.420499,7.26704 3.645633,-6.73632 1.121819,7.57695 4.759998,-6.00093 -0.210949,7.65665 5.729733,-5.0832 -1.537307,7.5037 6.525373,-4.01101 -2.816954,7.12274 7.122741,-2.81696 -4.011007,6.52538 7.503687,-1.53731 -5.08319,5.72973 7.65665,-0.21095 -6.00093,4.76 7.57695,1.12182 -6.73632,3.64563 z" />
          <path
             style="opacity:1;fill:#000000;fill-opacity:1;stroke:#000000;stroke-width:0.99921262;stroke-linecap:round;stroke-linejoin:round;stroke-miterlimit:4;stroke-dasharray:none;stroke-dashoffset:0;stroke-opacity:1"
             d="m 93.89763,834.44885 c 0,0 -5.90005,0.6123 -7.81592,2.5755 -1.91587,1.9632 -2.38412,7.8764 -2.38412,7.8764 0,0 -4.60491,-3.739 -7.34782,-3.7056 -2.7429,0.033 -7.25528,3.8836 -7.25528,3.8836 0,0 -0.6123,-5.9 -2.57547,-7.8159 -1.96317,-1.9159 -7.87639,-2.3841 -7.87639,-2.3841 0,0 3.73901,-4.60492 3.70556,-7.34782 -0.0335,-2.7429 -3.88362,-7.25528 -3.88362,-7.25528 0,0 5.90005,-0.61229 7.81592,-2.57546 1.91588,-1.96317 2.38412,-7.8764 2.38412,-7.8764 0,0 4.60492,3.73902 7.34782,3.70557 2.7429,-0.0335 7.25528,-3.88363 7.25528,-3.88363 0,0 0.6123,5.90005 2.57547,7.81592 1.96317,1.91587 7.87639,2.38412 7.87639,2.38412 0,0 -3.73901,4.60492 -3.70556,7.34782 0.0335,2.74289 3.88362,7.25526 3.88362,7.25526 z"
             id="path12446"
             inkscape:connector-curvature="0"
             sodipodi:nodetypes="cacacacacacacacac" />
          <circle
             style="opacity:1;fill:#000000;fill-opacity:1;stroke:#000000;stroke-width:0.99921256;stroke-linecap:round;stroke-linejoin:round;stroke-miterlimit:4;stroke-dasharray:none;stroke-dashoffset:0;stroke-opacity:1"
             id="circle12448"
             cx="76.181099"
             cy="827.3623"
             r="12.964961" />
          <circle
             style="display:inline;opacity:1;fill:#dd1d1d;fill-opacity:1;stroke:#000000;stroke-width:0.99921268;stroke-linecap:round;stroke-linejoin:round;stroke-miterlimit:4;stroke-dasharray:none;stroke-dashoffset:0;stroke-opacity:1;enable-background:new"
             id="circle12454"
             cx="76.181099"
             cy="827.3623"
             r="9.2444887" />
          <circle
             style="opacity:1;fill:#000000;fill-opacity:1;stroke:#000000;stroke-width:1.35354328;stroke-linecap:round;stroke-linejoin:round;stroke-miterlimit:4;stroke-dasharray:none;stroke-dashoffset:0;stroke-opacity:1"
             id="circle12452"
             cx="76.181099"
             cy="827.3623"
             r="6.587008" />
        </g>
        <path
           style="display:inline;fill:none;fill-rule:evenodd;stroke:#000000;stroke-width:0.6448819;stroke-linecap:round;stroke-linejoin:round;stroke-miterlimit:4;stroke-dasharray:none;stroke-opacity:1"
           d="m 132.93562,852.21397 c -0.85176,-10.40499 -2.22793,-14.59988 -4.56062,-20.35176"
           id="path4699"
           inkscape:connector-curvature="0"
           sodipodi:nodetypes="cc" />
        <path
           style="display:inline;fill:none;fill-rule:evenodd;stroke:#000000;stroke-width:0.6448819;stroke-linecap:round;stroke-linejoin:round;stroke-miterlimit:4;stroke-dasharray:none;stroke-opacity:1"
           d="m 123.4846,791.52394 c -0.5511,-5.03156 -0.46489,-13.18809 -1.90643,-18.29213"
           id="path4701"
           inkscape:connector-curvature="0"
           sodipodi:nodetypes="cc" />
        <path
           style="display:inline;fill:none;fill-rule:evenodd;stroke:#000000;stroke-width:0.6448819;stroke-linecap:round;stroke-linejoin:round;stroke-miterlimit:4;stroke-dasharray:none;stroke-opacity:1"
           d="m 123.99318,792.16919 c -5.35782,-0.17956 -10.6842,-0.34865 -12.93322,0.50806"
           id="path4703-60"
           inkscape:connector-curvature="0"
           sodipodi:nodetypes="cc" />
        <path
           style="display:inline;fill:none;fill-rule:evenodd;stroke:#000000;stroke-width:0.6448819;stroke-linecap:round;stroke-linejoin:round;stroke-miterlimit:4;stroke-dasharray:none;stroke-opacity:1"
           d="M 115.00905,782.81346 C 115.49486,782.32172 110.80001,768.724 109.9993,768.724"
           id="path4705-276"
           inkscape:connector-curvature="0"
           sodipodi:nodetypes="cc" />
        <path
           style="display:inline;fill:none;fill-rule:evenodd;stroke:#000000;stroke-width:0.6448819;stroke-linecap:round;stroke-linejoin:round;stroke-miterlimit:4;stroke-dasharray:none;stroke-opacity:1"
           d="m 114.41858,782.32172 c -6.03827,0.90628 -11.02872,2.0591 -13.08134,3.90318"
           id="path4708"
           inkscape:connector-curvature="0"
           sodipodi:nodetypes="cc" />
        <path
           style="display:inline;fill:none;fill-rule:evenodd;stroke:#000000;stroke-width:0.6448819;stroke-linecap:round;stroke-linejoin:round;stroke-miterlimit:4;stroke-dasharray:none;stroke-opacity:1"
           d="m 106.04017,776.67974 c -1.77671,-2.80376 -3.45897,-5.60752 -4.88392,-8.41128"
           id="path4710"
           inkscape:connector-curvature="0"
           sodipodi:nodetypes="cc" />
        <path
           style="display:inline;fill:none;fill-rule:evenodd;stroke:#000000;stroke-width:0.6448819;stroke-linecap:round;stroke-linejoin:round;stroke-miterlimit:4;stroke-dasharray:none;stroke-opacity:1"
           d="m 106.86316,777.13679 c -6.1695,0.8915 -10.409285,2.40549 -12.925662,4.47542"
           id="path4712"
           inkscape:connector-curvature="0"
           sodipodi:nodetypes="cc" />
        <path
           style="display:inline;fill:none;fill-rule:evenodd;stroke:#000000;stroke-width:0.6448819;stroke-linecap:round;stroke-linejoin:round;stroke-miterlimit:4;stroke-dasharray:none;stroke-opacity:1"
           d="m 95.291348,772.12584 c -3.443174,-3.8235 -7.315662,-7.30356 -12.515662,-9.7216"
           id="path4721-13"
           inkscape:connector-curvature="0"
           sodipodi:nodetypes="cc" />
        <path
           style="display:inline;fill:none;fill-rule:evenodd;stroke:#000000;stroke-width:0.6448819;stroke-linecap:round;stroke-linejoin:round;stroke-miterlimit:4;stroke-dasharray:none;stroke-opacity:1"
           d="m 95.918093,772.32237 c -5.063896,1.71989 -9.091857,4.85127 -12.877242,6.91984"
           id="path4723"
           inkscape:connector-curvature="0"
           sodipodi:nodetypes="cc" />
        <path
           style="display:inline;fill:none;fill-rule:evenodd;stroke:#000000;stroke-width:0.6448819;stroke-linecap:round;stroke-linejoin:round;stroke-miterlimit:4;stroke-dasharray:none;stroke-opacity:1"
           d="m 89.038629,770.4129 c -11.376377,0.70442 -13.373573,5.06902 -18.504729,8.2106"
           id="path4725-21"
           inkscape:connector-curvature="0"
           sodipodi:nodetypes="cc" />
        <path
           style="display:inline;fill:none;fill-rule:evenodd;stroke:#000000;stroke-width:0.6448819;stroke-linecap:round;stroke-linejoin:round;stroke-miterlimit:4;stroke-dasharray:none;stroke-opacity:1"
           d="m 75.643615,769.48786 c -5.830727,-3.3727 -11.482755,-6.34332 -16.379229,-7.61395"
           id="path4727-59"
           inkscape:connector-curvature="0"
           sodipodi:nodetypes="cc" />
        <path
           style="display:inline;fill:none;fill-rule:evenodd;stroke:#000000;stroke-width:0.6448819;stroke-linecap:round;stroke-linejoin:round;stroke-miterlimit:4;stroke-dasharray:none;stroke-opacity:1"
           d="m 74.083787,769.96637 c -5.533363,1.06798 -12.077088,6.40264 -12.653887,10.77845"
           id="path4729-9"
           inkscape:connector-curvature="0"
           sodipodi:nodetypes="cc" />
        <path
           style="display:inline;fill:none;fill-rule:evenodd;stroke:#000000;stroke-width:0.6448819;stroke-linecap:round;stroke-linejoin:round;stroke-miterlimit:4;stroke-dasharray:none;stroke-opacity:1"
           d="m 60.737194,771.99654 c -4.743985,-1.01319 -9.394314,-2.19495 -13.316847,-4.68675"
           id="path4731-14"
           inkscape:connector-curvature="0"
           sodipodi:nodetypes="cc" />
        <path
           style="display:inline;fill:none;fill-rule:evenodd;stroke:#000000;stroke-width:0.6448819;stroke-linecap:round;stroke-linejoin:round;stroke-miterlimit:4;stroke-dasharray:none;stroke-opacity:1"
           d="m 60.020261,772.23948 c -5.711547,5.00227 -9.051963,10.68201 -11.274088,16.68126"
           id="path4733-9"
           inkscape:connector-curvature="0"
           sodipodi:nodetypes="cc" />
        <path
           style="display:inline;fill:none;fill-rule:evenodd;stroke:#000000;stroke-width:0.6448819;stroke-linecap:round;stroke-linejoin:round;stroke-miterlimit:4;stroke-dasharray:none;stroke-opacity:1"
           d="m 49.997203,776.59179 c -7.837237,-0.20858 -15.833153,-1.01221 -23.038758,1.14783"
           id="path4735-1"
           inkscape:connector-curvature="0"
           sodipodi:nodetypes="cc" />
        <path
           style="display:inline;fill:none;fill-rule:evenodd;stroke:#000000;stroke-width:0.6448819;stroke-linecap:round;stroke-linejoin:round;stroke-miterlimit:4;stroke-dasharray:none;stroke-opacity:1"
           d="m 45.472493,779.43077 c -4.415052,3.12666 -6.698688,13.62066 -8.564997,21.68274"
           id="path4737-07"
           inkscape:connector-curvature="0"
           sodipodi:nodetypes="cc" />
        <path
           style="display:inline;fill:none;fill-rule:evenodd;stroke:#000000;stroke-width:0.6448819;stroke-linecap:round;stroke-linejoin:round;stroke-miterlimit:4;stroke-dasharray:none;stroke-opacity:1"
           d="m 35.313497,788.11935 c -4.439052,1.16879 -9.418884,2.02212 -12.956226,3.71691"
           id="path4740"
           inkscape:connector-curvature="0"
           sodipodi:nodetypes="cc" />
        <path
           style="display:inline;fill:none;fill-rule:evenodd;stroke:#000000;stroke-width:0.6448819;stroke-linecap:round;stroke-linejoin:round;stroke-miterlimit:4;stroke-dasharray:none;stroke-opacity:1"
           d="m 30.570285,794.07506 c -1.616239,6.35896 -3.212266,15.78356 -2.821706,22.83906"
           id="path4742"
           inkscape:connector-curvature="0"
           sodipodi:nodetypes="cc" />
        <path
           style="display:inline;fill:none;fill-rule:evenodd;stroke:#000000;stroke-width:0.6448819;stroke-linecap:round;stroke-linejoin:round;stroke-miterlimit:4;stroke-dasharray:none;stroke-opacity:1"
           d="m 22.246859,810.30255 c -1.660786,5.21979 -1.900124,10.94574 -0.989462,17.11132 0.915235,6.19654 3.446283,9.53601 5.547854,13.65037"
           id="path4744"
           inkscape:connector-curvature="0"
           sodipodi:nodetypes="csc" />
        <path
           style="display:inline;fill:none;fill-rule:evenodd;stroke:#000000;stroke-width:0.6448819;stroke-linecap:round;stroke-linejoin:round;stroke-miterlimit:4;stroke-dasharray:none;stroke-opacity:1"
           d="m 21.481746,840.49455 c 0.864994,3.04673 -2.345293,3.01053 3.294763,9.97455 2.820499,3.48259 4.348073,2.79377 6.09849,3.79936"
           id="path4746"
           inkscape:connector-curvature="0"
           sodipodi:nodetypes="csc" />
        <path
           style="display:inline;fill:none;fill-rule:evenodd;stroke:#000000;stroke-width:0.6448819;stroke-linecap:round;stroke-linejoin:round;stroke-miterlimit:4;stroke-dasharray:none;stroke-opacity:1"
           d="m 31.312499,876.08096 c -0.887238,-8.04512 -4.063984,-14.05512 -6.286782,-20.91308"
           id="path4750"
           inkscape:connector-curvature="0"
           sodipodi:nodetypes="cc" />
        <path
           style="display:inline;fill:none;fill-rule:evenodd;stroke:#000000;stroke-width:0.6448819;stroke-linecap:round;stroke-linejoin:round;stroke-miterlimit:4;stroke-dasharray:none;stroke-opacity:1"
           d="m 36.328428,868.09094 c 1.73707,5.92704 3.290631,13.68918 5.327821,16.61502"
           id="path4752"
           inkscape:connector-curvature="0"
           sodipodi:nodetypes="cc" />
        <path
           style="display:inline;fill:none;fill-rule:evenodd;stroke:#000000;stroke-width:0.6448819;stroke-linecap:round;stroke-linejoin:round;stroke-miterlimit:4;stroke-dasharray:none;stroke-opacity:1"
           d="m 51.04427,880.09332 c -2.427074,-1.2754 -5.999439,-3.00082 -7.51301,-4.46361 -1.513571,-1.46279 -7.131814,-6.735 -7.131814,-6.735"
           id="path4754"
           inkscape:connector-curvature="0"
           sodipodi:nodetypes="csc" />
        <path
           style="display:inline;fill:none;fill-rule:evenodd;stroke:#000000;stroke-width:0.6448819;stroke-linecap:round;stroke-linejoin:round;stroke-miterlimit:4;stroke-dasharray:none;stroke-opacity:1"
           d="m 60.870103,894.14105 c -0.668029,3.25922 -0.710981,6.93517 -0.682604,10.65866"
           id="path4758"
           inkscape:connector-curvature="0"
           sodipodi:nodetypes="cc" />
        <path
           style="display:inline;fill:none;fill-rule:evenodd;stroke:#000000;stroke-width:0.6448819;stroke-linecap:round;stroke-linejoin:round;stroke-miterlimit:4;stroke-dasharray:none;stroke-opacity:1"
           d="m 54.153594,894.55297 c -1.897837,6.60564 -2.788658,11.42097 -2.903595,16.37174"
           id="path4760"
           inkscape:connector-curvature="0"
           sodipodi:nodetypes="cc" />
        <path
           style="display:inline;fill:none;fill-rule:evenodd;stroke:#000000;stroke-width:0.6448819;stroke-linecap:round;stroke-linejoin:round;stroke-miterlimit:4;stroke-dasharray:none;stroke-opacity:1"
           d="m 42.759191,905.09464 c -1.88115,8.33271 -1.989543,14.76009 -1.759192,21.08007"
           id="path4762"
           inkscape:connector-curvature="0"
           sodipodi:nodetypes="cc" />
        <path
           style="display:inline;fill:none;fill-rule:evenodd;stroke:#000000;stroke-width:0.6448819;stroke-linecap:round;stroke-linejoin:round;stroke-miterlimit:4;stroke-dasharray:none;stroke-opacity:1"
           d="m 31.85268,918.1266 c -1.628075,6.77603 -2.958168,17.37689 -1.417016,25.42127"
           id="path4764"
           inkscape:connector-curvature="0"
           sodipodi:nodetypes="cc" />
        <path
           style="display:inline;fill:none;fill-rule:evenodd;stroke:#000000;stroke-width:0.6448819;stroke-linecap:round;stroke-linejoin:round;stroke-miterlimit:4;stroke-dasharray:none;stroke-opacity:1"
           d="m 22.538066,933.5039 c -1.385121,13.20865 -2.999675,33.39671 -2.531785,42.33471"
           id="path4766"
           inkscape:connector-curvature="0"
           sodipodi:nodetypes="cc" />
        <path
           style="display:inline;fill:none;fill-rule:evenodd;stroke:#000000;stroke-width:0.6448819;stroke-linecap:round;stroke-linejoin:round;stroke-miterlimit:4;stroke-dasharray:none;stroke-opacity:1"
           d="m 26,968.4872 c 0.622337,9.18855 2.461247,19.60532 6.340055,25.3048"
           id="path4768"
           inkscape:connector-curvature="0"
           sodipodi:nodetypes="cc" />
        <path
           style="display:inline;fill:none;fill-rule:evenodd;stroke:#000000;stroke-width:0.6448819;stroke-linecap:round;stroke-linejoin:round;stroke-miterlimit:4;stroke-dasharray:none;stroke-opacity:1"
           d="m 26.709268,998.48025 c -0.85134,7.57355 -0.565109,15.40965 -4.258628,22.32735"
           id="path4772"
           inkscape:connector-curvature="0"
           sodipodi:nodetypes="cc" />
        <path
           style="display:inline;fill:none;fill-rule:evenodd;stroke:#000000;stroke-width:0.6448819;stroke-linecap:round;stroke-linejoin:round;stroke-miterlimit:4;stroke-dasharray:none;stroke-opacity:1"
           d="m 30.3125,996.9247 c 4.300112,9.0597 8.274314,19.0506 14.146838,23.6177"
           id="path4778"
           inkscape:connector-curvature="0"
           sodipodi:nodetypes="cc" />
        <path
           style="display:inline;fill:none;fill-rule:evenodd;stroke:#000000;stroke-width:0.6448819;stroke-linecap:round;stroke-linejoin:round;stroke-miterlimit:4;stroke-dasharray:none;stroke-opacity:1"
           d="m 35.828251,995.64342 c 6.77898,2.03095 13.229907,10.32328 18.08864,10.57998"
           id="path4780"
           inkscape:connector-curvature="0"
           sodipodi:nodetypes="cc" />
        <path
           style="display:inline;fill:none;fill-rule:evenodd;stroke:#000000;stroke-width:0.6448819;stroke-linecap:round;stroke-linejoin:round;stroke-miterlimit:4;stroke-dasharray:none;stroke-opacity:1"
           d="m 100.4375,1029.6122 c -6.527788,-3.392 -12.518451,-4.4565 -18.731184,-6.4833"
           id="path4792-58"
           inkscape:connector-curvature="0"
           sodipodi:nodetypes="cc" />
        <path
           style="display:inline;fill:none;fill-rule:evenodd;stroke:#000000;stroke-width:0.6448819;stroke-linecap:round;stroke-linejoin:round;stroke-miterlimit:4;stroke-dasharray:none;stroke-opacity:1"
           d="m 86.436009,1022.2489 c 4.049332,-4.5487 10.402725,-10.4303 12.993676,-15.7643"
           id="path4794"
           inkscape:connector-curvature="0"
           sodipodi:nodetypes="cc" />
        <path
           style="display:inline;fill:none;fill-rule:evenodd;stroke:#000000;stroke-width:0.6448819;stroke-linecap:round;stroke-linejoin:round;stroke-miterlimit:4;stroke-dasharray:none;stroke-opacity:1"
           d="m 110.1875,1024.1747 c -4.91912,-3.13 -9.98581,-3.456 -15.015235,-4.4902"
           id="path4796"
           inkscape:connector-curvature="0"
           sodipodi:nodetypes="cc" />
        <path
           style="display:inline;fill:none;fill-rule:evenodd;stroke:#000000;stroke-width:0.6448819;stroke-linecap:round;stroke-linejoin:round;stroke-miterlimit:4;stroke-dasharray:none;stroke-opacity:1"
           d="m 103.71519,1015.7873 c 5.90439,-2.1946 14.58137,2.1656 20.09731,0.2624"
           id="path4800"
           inkscape:connector-curvature="0"
           sodipodi:nodetypes="cc" />
        <path
           style="display:inline;fill:none;fill-rule:evenodd;stroke:#000000;stroke-width:0.6448819;stroke-linecap:round;stroke-linejoin:round;stroke-miterlimit:4;stroke-dasharray:none;stroke-opacity:1"
           d="m 127.5625,1004.3622 c -3.04994,3.6173 -7.56295,6.4217 -12.72686,8.8646"
           id="path4802"
           inkscape:connector-curvature="0"
           sodipodi:nodetypes="cc" />
        <path
           style="display:inline;fill:none;fill-rule:evenodd;stroke:#000000;stroke-width:0.6448819;stroke-linecap:round;stroke-linejoin:round;stroke-miterlimit:4;stroke-dasharray:none;stroke-opacity:1"
           d="m 123.89461,971.71316 c 0.77184,8.9829 0.33199,18.98403 -2.04311,27.15105"
           id="path4804"
           inkscape:connector-curvature="0"
           sodipodi:nodetypes="cc" />
        <path
           style="display:inline;fill:none;fill-rule:evenodd;stroke:#000000;stroke-width:0.6448819;stroke-linecap:round;stroke-linejoin:round;stroke-miterlimit:4;stroke-dasharray:none;stroke-opacity:1"
           d="m 131.22418,968.18259 c -1.48083,11.28542 -1.571,24.07889 -8.99573,29.69102"
           id="path4806"
           inkscape:connector-curvature="0"
           sodipodi:nodetypes="cc" />
        <path
           style="display:inline;fill:none;fill-rule:evenodd;stroke:#000000;stroke-width:0.6448819;stroke-linecap:round;stroke-linejoin:round;stroke-miterlimit:4;stroke-dasharray:none;stroke-opacity:1"
           d="m 113.62296,935.30811 c 5.79653,12.54029 4.6809,25.66843 6.81551,37.05783"
           id="path4811"
           inkscape:connector-curvature="0"
           sodipodi:nodetypes="cc" />
      </g>
    </g>
  </g>
</svg>
